<mxfile host="app.diagrams.net" modified="2021-08-28T19:53:56.451Z" agent="5.0 (Macintosh; Intel Mac OS X 10_15_7) AppleWebKit/537.36 (KHTML, like Gecko) Chrome/92.0.4515.131 Safari/537.36" etag="Eoduop8dMX1Xty6qIQ77" version="15.0.3" type="github">
  <diagram id="gPwn0Hc7XsEgNHTmB-Qs" name="Page-1">
    <mxGraphModel dx="1426" dy="773" grid="1" gridSize="10" guides="1" tooltips="1" connect="1" arrows="1" fold="1" page="1" pageScale="1" pageWidth="827" pageHeight="1169" math="0" shadow="0">
      <root>
        <mxCell id="0" />
        <mxCell id="1" parent="0" />
        <mxCell id="nS4Bwxo-vKO3iZAZe_Ir-1" value="Bot::computeLeagueLeaderboardMessage()" style="text;html=1;strokeColor=none;fillColor=none;align=center;verticalAlign=middle;whiteSpace=wrap;rounded=0;" vertex="1" parent="1">
          <mxGeometry x="40" y="40" width="280" height="20" as="geometry" />
        </mxCell>
        <mxCell id="nS4Bwxo-vKO3iZAZe_Ir-2" value="" style="rounded=0;whiteSpace=wrap;html=1;" vertex="1" parent="1">
          <mxGeometry x="40" y="70" width="280" height="210" as="geometry" />
        </mxCell>
        <mxCell id="nS4Bwxo-vKO3iZAZe_Ir-3" value="&lt;b&gt;G2 Esport - Fnatic&lt;br&gt;&lt;/b&gt;&lt;br&gt;&lt;br&gt;(02/8/2021 20h)" style="rounded=1;whiteSpace=wrap;html=1;" vertex="1" parent="1">
          <mxGeometry x="60" y="110" width="240" height="90" as="geometry" />
        </mxCell>
        <mxCell id="nS4Bwxo-vKO3iZAZe_Ir-4" value="" style="shape=image;verticalLabelPosition=bottom;labelBackgroundColor=#ffffff;verticalAlign=top;aspect=fixed;imageAspect=0;image=data:image/png,iVBORw0KGgoAAAANSUhEUgAAAIAAAACACAYAAADDPmHLAAAAAXNSR0IArs4c6QAAAIRlWElmTU0AKgAAAAgABQESAAMAAAABAAEAAAEaAAUAAAABAAAASgEbAAUAAAABAAAAUgEoAAMAAAABAAIAAIdpAAQAAAABAAAAWgAAAAAAAABIAAAAAQAAAEgAAAABAAOgAQADAAAAAQABAACgAgAEAAAAAQAAAICgAwAEAAAAAQAAAIAAAAAAu7RpdAAAAAlwSFlzAAALEwAACxMBAJqcGAAAAVlpVFh0WE1MOmNvbS5hZG9iZS54bXAAAAAAADx4OnhtcG1ldGEgeG1sbnM6eD0iYWRvYmU6bnM6bWV0YS8iIHg6eG1wdGs9IlhNUCBDb3JlIDYuMC4wIj4KICAgPHJkZjpSREYgeG1sbnM6cmRmPSJodHRwOi8vd3d3LnczLm9yZy8xOTk5LzAyLzIyLXJkZi1zeW50YXgtbnMjIj4KICAgICAgPHJkZjpEZXNjcmlwdGlvbiByZGY6YWJvdXQ9IiIKICAgICAgICAgICAgeG1sbnM6dGlmZj0iaHR0cDovL25zLmFkb2JlLmNvbS90aWZmLzEuMC8iPgogICAgICAgICA8dGlmZjpPcmllbnRhdGlvbj4xPC90aWZmOk9yaWVudGF0aW9uPgogICAgICA8L3JkZjpEZXNjcmlwdGlvbj4KICAgPC9yZGY6UkRGPgo8L3g6eG1wbWV0YT4KGV7hBwAAJRxJREFUeAHdnQmYZFV1x++r7p4ZQBBEBHFLUBkjmCCoKEYdVDQYUb4gq/rJZ9TvSyIaNYmKiTa4b4kJSESjjgaGgZFFUcEg0AYRkLAqqCCIIgiKsg4zvdXL73/OvVXVS3VXvfeqq3pufa/edpdzz3bPPXd5WehzyEdDLYxx7B6ycG+oZxvC9EIg5WvCcHhs2J7/bcMURxYeQ/ydQx524fxouw5hO86rOB7FsR3vtua8griP4/pL2frw13ngbtSOXOdsNNTzo8KJvD+auHdyTHG9kRj3cv0Qxzj3v+f8O457eH4X978F2t+HEeI9HO4P54T7s8DTBYLBr7reRLw11JdyF4je81fDPS8hFtBAuIitsFPIReyIgDpM0Aj5oWErYu3KsRto+mPQJeLuxvEkDhH70ZDnEZxXhSHeKkcwb6EV/bpOh9C8kmPcmMGfHxff66xQDztQ8jbEeeqMPFPe6exxFV/lTnGeIN194chwD8XdzdPbeH4bz+/muJW8fgGkd2Vrw+ZsjPhjyoAwZv/BmMIvg5gChswpqrUm6W3l554yQEO6AdsqTsW4bHA8N1k4AqLWwhN5syfH3rx/GscuvNkV4ooRFMtDSq2zDoVp8tOR7lNcf6u79GSaOCPcT9mr4+JzvR21J4o5SV7Ke4KzcJNyTWd/4jnqX9AN8z9M2q0572q5phKVSvnV0SDj4Tf5kaY1fsKTazhuIP6vsnXhl4YbHlgYsyIycDdsDAJD9FJLVMoArQQPFyPdmRG7SfBDUckZhB4KzwW1e3L9p5yfasgTJEKcYgtxOotk0/avd3qqGLMPEaFmT7lYICQ40jlA+CZhPWE95uN5zpdZIm7zXW656N/ZUHnqLrOfw/YIIFQ9pVleYPGdMTbCFDcT/zqe/Zj3l8OeN6IZ/wBszqhjZDZKqjEOhYoZojQDGHB3QtJdW9S5AAVR+WvD4yHfn3G3H/cv4KzWb2eTQ8VxIuvsPydxQnEitKSryuCIbc3xhkYJc9+1xpv/OkGXzh6reeesIWZWcNbQlRqvbfjfC9LupQfoH+mTu2CKm7i6hPc/4P46NMAd3DvjjkWGmIlzXhcLXTMAtcjgwiErbmwm0fOjMc7GTY0fQEWfC8h7Q+ztjHcFfjomjLuFkCRpfm4irVht2qdy5Ot9HiXLid583vrO89G7KiBSHs18mlfODLIgHDN6o+Zkl3i80N5MhvthiKt5dznCdAENzTUwxH0xjbhqJj2UaxehIwawQg4FrB1CLfs8fCpDJob8dWE1d/tzewDE38+AV64CQ7GmTIW7QnREeEV51acwMafc3zUIJBlUaCWTP+nNv8qRMLlACWtqRqQPhT9vRB4JW+zP9f7g8r1hs2mIS3l7AbEuzk5HW7TS4y2IHL2psAHboQNmaMsARvQo6WakePdsOl8DOLsi2fXwCoB6GUDtjXW90gD2dk0mlEivVltqTscgBIciAzqFJtGbsMkI7G8QjDqaNo1YIZmm0hBDaIihcAixDkHgxtEOVxH/O9yfT7yrTEBjHYxWupambsMMcxggtemtkm7Pbg7Pg+ivApxXkOWekNwVl4g+YYhzwL0CIzz1K7sYqD9BHGjGGt2wlmtvZ/V+UIK0gAjvwbVD0hA1qDBkWnc/KHAcsX4EQ3yLqN8Ip4XLW3sXuTRD006L2cWMjcDeHqcuhyECI+7ZEPzg8DOOLDwdV4p3a5zoqRmQ+nKCN7Id6AuH+06cP1Eqcq4NYsnaYAfBqcM1hAxKNbEepB2eYcdkeA8+iR/jTDgHof06jq//S5phNq2HcboMYVQoEyf6UeZ8OYys/4rj2UZavZUV66o9GW6JK2P5A39KHclNBum9kei6aV5vopYKzhB2OdB/gjPRQV1m94no2TBausYxEf4ZrXAF8c6kbhug9W1cO63XhOFheeOQdLlLD+I4kuMlSPoqiyJZGYfHXA0tN0kH+HlCPTgDzPOKerZ/N1/8wXomZmgalE3jW8ywL8ywL8xwHMwg4/E0jm9C+4eG8yPCx+CcNyDp8r655e5teuqaJQ4brOp2A02yqP38oCV9qEXK03UWHkQAFJK2sJtl+peMbzUTkng5ubaCGWTHvYrG7g6Y4asi8grcEbsQaRMPk1NVbbq4abmoQkBdICRyirg5RFZ4iv37X7rWu8QAnqYl0rK9TJphhLrVjcai9TY2MLZ9DeX/bkayboYztqKK4pItg+iz6aVatWqA2e91n4cHYpz53m4JzyTwdUR7K2j+S8T9Xe7YCeF42giFhCa72eL+pAgzhm1nh583HjwAerbk4PpNuj0PH8QG2GRkz04Lp2AgfI/GYJgXcz1lWwpKvDV82KrTJHpr7WQETkYd6Mhqfbv8ryeg8QgUvowx1y+rOjVzEOgKjqDq6mHKxZP6lnqzJQS5oiX9mtSx0Sqk2QQppOtpsw/G0+Mt7CyarsTWEx4+RHewLtprBHs6Bz04Cy7k1bro0tnyFKFbNprh403ADi0M0LzWO8XZEkMd6Zdon8UchG9bBaF9TZwQDotknw4fQj1sRAuoF7BlaQG3bh6gZs4AmpKVQvNa7+7fAhmgbjSdgLo1ND0hPzCsFO3dBtgQJvAIrmBk6Se8+yyWwJYa7s3+OzYBTElrVDJeyyji6R8az7ecizzS9GSk/1qj9Xk0hwS3/b2iLvFT4SPwiaYbyFbccpoCV+ua4CnKZ2GPFgZg6DT6yPW66RjW3fIPkv4haHoP7b9JPyOhDbo2GMBcwtICG1CBMgi9q9CIuPzxQA2yKN0a5h5tMgC8IW2QcHHPFlHXZiV8dmMWPgJtf2fS3zJ/IFXaohPBuoAYhJ/j6hrrFvpEpWZ2y/VKGiALvzbwd2JiixO9WZsrjOV1f3t86DqjGWP5XanbO4zVM07TPhn+wyqwwfp6jbrMYAA91ehgfHtslBHFabaX8eUyO7ljNw+/Mri3aUh7sxo7N0y/xADNd8vzKnV9xfjHmoZn9G82489hAE0lUn1xDp0P/5xtUw40Jti/IOYry4DJs685+4HlJHPzS8+04MMbvrm4scTL5m/cNPhkOB9anmNQj83t2c2ppDgkh1MswRQu4s2wQWarbORC6FUQQYR2GaJakaOydOheoxNSx3OJxsMOgtJlseou3VrTMzukZ3W0hOY+eAMwN97sdO3uPb3eKreZddJEjt6GaeBfZQ261j0RRFPRdnaxcxjAIsApsopRG9dyf5I5EKrtEQgQEVe+R2csre9Rz2ME5lvJIbe05rg4AjdzbqKUm66CaqmBnlps31us4EY+6VnNpmCX7wnkpjXV/Rqy+qhOqptq6QzdWv+qje3pSLMvYM9dAbI1c3jeMlzSG1jwC3EK06T0TjNMPkFVDgNsDRlLG8ybZlYWrbcitgp3vhehE7GFDAWX9YeJIem7iSe/4JC03sKza4n/ESp0JBwtI1X+rG6CpFnMcy+ptbYvGDLG7Kr5JwTp2RTxhqwrqHWFgr1bxpO/fQVlnUeO74bFn0mNn0xOT+RYTW6rOe8CMwwZMwgzfvh8YC9N/2LbbssmCTUYovxxejwZcz0UDg0jOH3mHeNZsADzFuEwYOLAPwLwJ6iMQFWaBdPxXogTh+ssrtfcYE+lp9M2r/3nPJXj6YeAfD2xfk3+v049EZ43AuX/L1V6AVWQxpCXspugbtAQZVxBW/hcJQSoxnzA1ozScybJeHk+G9eZtDXiwteTQDgCpI3yWqNjZD8KfDyBYzXP9+N4Jsfu3O9iopUw5xPDJRrCdcIelwsGpa5Tuvr9o0j/cdbti727+VIuLM2bjIgymj7DMMnRAPh0ECkSzkaKF+yrXiRvQ8T1FT0imRZJTrO4IQ+X8uYaztcC3J3zAaSmB0m01cKayEgFHkm8J0dIJBXdhpzcRPVblJD8h5EGb3Zm5/QWYKZM4BdzvsBSzY6z+P2QwZqH3WDcR8N094gIJJu2ufpa9hXsuI7zGcqOVck7gKNnYm/tA6x/DqzP4SwtoUkcriE14y/ht7120Fj/EDW4hZSfUt6tTh+7n/W3IANoWnF+DD7jE9ACR4VR0grgJP0CTYcYQjImleZhkvZ2IlzJzfc5LiTGDUj2HBcriBmy+fnJLXsGaMBep4CpfCfeKaxAddY1ZGV3qQS76ehPECpkTIBQ0JLMdiG1/FnsLiptqm27NHOf14BXJNqJ/ydxyLE0bd0wcjMG16qktC5hjHfraHJCuCgenzSGmELYND8zC8/n/BwwvL1BLjw4LiRagq5VO/hK6SlG+3B5J9oRp21YkAGUyoiPVCI1G+Doi+CsF8NhMso0J12teM3kadpmmFzI8+8A8GVI+O1KnwK41Hr8IWtnaW/Jb+5eAK3IZhUSabU0dLXJTzF17ChyIG62U3PkL4HWPKd3dVu9r7StEDXjLX4lB8wweNFK56u0ooqzL84YNaGZkYMxhbTeGnss3IghLo2HfDPa1+A53L8YiF7CWThp1Q5iuQlKlOV/Obhfy30IJ3C3SFiUASy9gJMirzPfvE6brVnDbrj9FAKdz7tzWQB9eXYuE41isEpJDm4AdPndqTgVc9U7lmJ1cM5YOCkyuPrrIMGcKGr/FX5q/82RP7ud8dd8d1NM41poRqQObpLmyK19P3WxFOBFBDQjVIJiuJOW2MNqLoa4g/dn68jXQOZdbbr3Ady/mOP5PNFGGdoQQ0z7Hp3Io31TpwgxdMQA1hS4FrgSA+njgKp18Cdhyl2TxVEl5WcqvQm0V0ovNuivy6D1bQo5q4sTQrvMwlJLijUVfMqQGJCyGZtRzMiy+e5OynyQlHIPCQ4JQOdBZQrmnIUaCqkudrPwH7xuwmKxIt5ahYmmROys7rmOT4Jz9S724fpoSv0lNsf3xEQwjbM9LxYKXak4y1gAtgSbUaQK0n5jWs941xKtq0tVmArU1Quh5buRhmM3NE33hMCWQDqkim+ClHuaUSnkzKrDbOBUTzqdPyLlHqQVIjsSlJZ8ZIzVgPl2Uv6JtcexTi1xCl0abHGhriwj4alQRjFRVxUT4hoAyIiRASOrWaErVoqltztpMDpQse1slZKMQIUiJWgoVOS+xYjfAREazBdsa5c9SF0Ewb41RqDtnrAJ6NfZAHuxvFT3RjDmjQt19dC0Q9wrwJrZRZi7kVG86IoBlKYFgNl5VXe/MqpcbZzgEizNUoQBkkvX23+1q4uFZhxdHUR0ld1tkC6UF1BaQP3869Bl3TUjHZYYNYAxqQlnh+lStJ4AlTIvfE5++RCeFdFWRApVfM3Il0GA7sP1kfRFceTap27tc7DdgbqHoasUJpxdpRCCBiyYCm56rp4VidA9lJJAtd1qwXPbhyfMmAXULsc0U6iOM8gbtxGiFmNAT/UsFSUPp6nrduX26fnAMUBsK9Wj2AWcrC6IejUY01gSaot/z/8tHeP3A5HlVmID5MitdwTd9dJxJjGiGICNoeg5PcGe3ABDDlgYPAZIbWWNHcS0oZRL0eJt91zETpt+yyHkaWzoqDAaiTs3bvNJLCn7qg0c3RoZoIgG8D5RLexIPfayAuabiNIsuS9Xg8cAqf0fYjmz5MX74UUYwMcAaP/VNnZjILXEvTY2kmpOug1iAHUHFfa1/xVopQELA8UAciSprTQc1dmSxskupBVhgFS36y2/0cX7/4onZmH41NPm+AJc9kXGbplAMGtihoIxQBzccpawx/3/S0jqPySCwH3m3v5neNGKKF6viZhmRTTinAGa3TuP0dn/9ZZHht+9qCHoMv8M2zNRZcY6dlZ872MNFgOk0bgR3L+ZbTIpDBSB0VXvNGNuI1jzCmn0zW46/Js2Q/A3JQxB+QFUg505791hqUsarQhyewJgbHddXnLG4jWC7ps2FYHRGSBj29WvxjGANOTcBfQ0R3cRPQ0gd9sEqCSp+wnTHxnj/Apai1msSbPkVf8VQW7VMHh+tLsg3Bkg2KQIPVcjUKT994Hc6ACy/nec7eyFLfJP3EafXVPSPBTFlXskqJPZOKPUKdkYi4CxFK+LVqpnsLHz6FPIfG9z4BRV/5o25qykTRS1+/+QGXd2s/ifxfXxCEFwVbRFitoBaThaewLvvnjpSxtj4BgAZO+H+t8WAhYZhRP25ILVLv6a0OYu4GRbdIPblCZjvuIUQ8OOqSJm6RAQTVInbX3//G5AWIq4A8EAahNb1P9LTemLhMXUvzaolf1wC4i/yZCYpnx3g9GUZhvcyHIle+etiB2gJix1Bw8QCKrroNgBA8EAiS75wYz+57Ypsh4V7S+niVzXgOhN1pbz7YJURsdnhrqtzfZJoldHS6QYvjQuKHYO4UWaKNoxDEsQsViFqgYsGUVbm/fv8ZBLBCviN5eESuUqaHdM/Y8UmahidoBP1JY2uTzmOcR191pAaynUpI3QHQw4uBRSne2mf3+DwQDN+h8U5b64+pf8T5n75gfNbAteJbe0f8ljk9kBxWc9+fBwsDkGBQGqPlnfGUBtobWJmv6VhwOjqiwi/cKOt/8B5w9T0Q1dj4g5FsOdNx2rWcCSY084trrXAF526g38RX5Q2HpQ7IC+M0DQYgyF7bGQm3P/irb/yWz8IQie0HxFIdrx3/2/EUmbZqjvLi1QDltaMFKntk/ge2cvNGhS3bsHrbIU5apUGRiW0SFR/RfpaiVIkoK+2B6koeX0tsi5uY/whdEOKIOz1AwcUgSUXqQpU5nS8CQrm7O2qf3LKKtFYdL8Py1S2cT5EgPuR8Wlv1G5tDxukg84uT9A3bqizYCPDdDU5W8M2w7C6GBRZDfwU+oiWdlDfG9oiGVUrqyF4CIhjb1fz1KrW822GCvV/hsMjTURG2xM4eqSWkrzlNQpfBxLaF5uBWxjIwVF6ltJmr4xgAjEaHtqnw+P7avuyzLAdw0zVbavyS2sZW+OsaLNlOrmzUDGknuFjSyALV5ny6LMX98YwNasI6HMl9Mqo5fG9rVMXdzKng7/Y5k0l3mVydPTppU99fDdOF2laC/F8xObs/CTRaBPMiOV9fvlgSyWQ/8YIBlXtfBqVOJjTDX6JK4iNdGmCGpfbwOxWpUctGilSEbzpWn0JO62pe0/BV5Jsvv25kuw8DPBmTM28CiY/tULR+39274wgBl/aU1hcwKWdh8pqv7Tl34vhFjm/iWjoobavFg3mGVT5GgYdVK1Xr9YcFeV0mboQZ3UZW3uzqZHSxb6wgBpWhR+cblFXxSnbhUlvpDl7t88boJcbPpXZ0ivUYZbKmoGijKZL6nXHIEjbCOKvk0VW3IGMIPn8w31ebgtmfJvFBRtVych/zBM9FvU6veNimlxR2ck7SxWynPSPvD8S0qUHijaDGhMYZy6Kxxp/+CkH8bgkjOABkGknpF+DYwcFlFYRvrTVqgXswq38/n/hvUu/kZd2lHX95PqAiO/hnmLB9cCWXiNDGFrsvowQLT0DJAQVue7hCvDY0GhpoEXtYKlgkesB5GHbypra6uLq2ZlMW8wpm2209+KpNfMxaJdQs1amgAH2krmNfMWugQPl5QBpOJkUZuqq4U3F0ZdEzGy/rUp0m/pA4zZ4yKzf5v5LXyV8h7B0zjFljha/Vu8GfCynH3enK9hR4+Em4WhqPTtkjJAYwz8CL4/PMKyad/3R1JUNMirJmv64uzUuBH0mgrYqh005G1M7MvGUjPQLnYnz7V2YQrbZU904SstwRI3A0UNr04qNzeODCnf9uRtscMn/i868qe0abHVuSoM9a+RO19ZpAcE614lyfVHnf8zlVxSmRJoVFBlUAeV8Q2I9ybOYmDFKVoPNWMKb+M4x1Ywx61h7GmP/5aMAWxodhS3p7p+NT47P2FGVdG2X2iR71+G1K/RAhcYntIuXy1IayVgy+Pil6mMjTQ52zBHYJiZvpPUpbgZq00l5QLbX11CmOwSw1XaeaU4pB2lXDIGAFXO6Xl4p8mK9hwrLjWqnO8+OhW+K+vfJD12L+0jWHFgGIY7hrjarGkjKTpr8nxB6jbEv4GBpX9XYZpbKA3ARpJTkUAPkvd55Lg78UR+1a8oG4iZ5ct4J3lc0sAVN70OS8IApprl7Tqc+f4Z1r/3njsjxnwY0Lw8kV/51GKjwqga2N9s0Q8zQifV/QYkdR9T2p2SR6SUYt9oi0KMAZhfZKn5y/M0z0BlT4S3GyzFVzEL5OQYOpjxgefAdD9M2/TqZS9DcSJ0CBW41K6YbuvWwjsw/rRti4jTKTnmliTpFuvWw89Qn9+1CIyqzY3Ik4zN7MQW2txSX0Kf4EjndK379ExnxXVWum/ePHf0sjA8LwWSK02juQaYN3oHD1WjaesMuxYIzBpaEsdQzxmAWX4rbEz9KNsr5/CmSdUBWtpHSfv/nkkbP2HS0mKszUimWYJeyxGYQWyjoRw/p2vdp2fp7GnmNezMGNQcRoUsrOeoJkijuWNoX7NdwF01GbfPpacMYHPyzzPlK/l4B9WR00aSOi9i24M5643U/wSsNBROtTf7dsRWboPMyqrwbZpsOhJOp0Ya21SdypQh97BWEIlh3yG4tAmn4bAwkIsn7CkDpDV5WLf7AcprXXGWlhdt/ihUX4gKvlEIQiLdqli4vlXJqZUiCc3lvNHq45wu4Yg97gSOhaCsGY7ycHh+WJw42pyMslC6wu96xgBGmNSV0f61Upi5tawiX/mQhS9aJmNRwZfPsXgOgsWtnHKaTZpROJLir/mevzZvECYvDtzCKXuWcbKasfwPRGIPwshyx83C8Cz2Vq5fjfzdhsyb84feeLL2F0tb+XvZNsqU/XkvAqarzcAt/5k9fW1EBuGBdDO1UaV2KKhUe1me8a8nDCDLv+GA0bdqHXwhq1x5yVLOwlfIf5P6/mRdpt1txUWha/M/KKW0gNeuLDzKJS0mPT7hUudCAC6SqBxB2mUeJ2TCwX+LOtsH6ZDhV9ailfSvREFuIi83/tIYfTs4luJ5gmE4fA0tdzcwqp6qb5mgMYJJartXOMIcWaGxgKZMrvOkrZwBTCpp+yG+VsEeH82zsm2jQNfiSoUzcZTcbFej/ZX+BINJqc9FODUaqG4RWITCfxrllNyPgsude7WGoHIGSNO9AP2jyMKOtPzlVb8Ptvh38LLwJaHULPA+q3/BYU3QKHLv4Stogc2mqcSw5YI+PaORwh0oxL/+1YMdxiplgPzosMo49Uj7tMmbogcgIacMOvw7eDnDvuvCxZZRgU2fygCwSFqTeIxBbUl3jmkB+SnLB/k7xGVHY0y/zHALjstn28yhMgYwiVwbNmughOw/HZEgKShrvAiRadj3CwI9ji30zfoXDK0hY5DIPm7hD78QiSZboCyMwt2UGZe18CnzeArH+B9ayy9zXQkDzLBQHwj/Arn2ov0S8auQfq2oFSqvZ+egr1ll09hCmZpXnXZfa7G9SxgYn3ASgZrSQbaAmoJn8AG996fcZuA8PSxwroQBZKGqT4zHb1/k/X2OCoOmrPRr3C8x0clJBab+d4H69iyJaYGknuvhxNgAiA3KMoEPNrtBeCwG4fOs/hUtfSvNADleKiOMq6WTzBlSxxTSQEv5oFE/7fhxK8eXLbt2o37lyyqfwx+51ZOdHr4OvJdHDFRhCwzDRuPWuObhP60JVE+rAg9haQZoeKkeGz6CebI30j8OyVaWx6blkHb8OtEcP4zANRxMFRVQZTamBfwrobJ8/Mud5W2gBOJKw+0qttEdir2CCjyEpRjAZsZoUETu3iG+Lzxu6q6swydV2GfJTPDlre3CyfYwtrMpwiCeYVCbk0iP4EwIdiVaQDgu2yVMVdVHofVt4HeA81dKGKLRnd53fS7MAHFa1GT+ehZ24pqNJUvdlW33UyV81C8Ln6aJedjK05SsZRAaVnotfLgybHi9hVvfp6wW1tIU7GLNr/e8CmGmEAMkb5+VOBnWYaHuBI9XZfUr20kkZwUulV+wR6d1/TQXr1AN+5AoGan4LL5OTS6hJrKHZBdVETQVTl7RHcl1nTI0JmguWumqjK4ZwLofcZo1FunHae1fQiW1sjdZ610B0CZysv0/ps/RGsOVt6bbFNWbx4LZcs7QAu4NkH+kGg2mWUveNdwfGritAU2KdA27ZoDGxg5HMcFjKPyTt3jWzlWl+mXtqq27DsStNSSmARe7WSZ/EWa0wHeox7kIinBt9kFFNaiRm3pJ76L7/XrTOgU2muiKAdS2ycix/n5Ot8x7uOqhdpXPAgiQhPhXsevhY1aWylwmbX9rvaxH0GybP2oGsn/guaqmTDifMp3C+Ij5B0Qb7463grLgdceEs/6+nD1sa4K6PwvO0/w+cbRUW1VBHi9Nkb6IvvR6y3SwfP7d1VMfh5Cf5LRwGQnXRky52HSXU7vYTgN9XTUPZ0Gb3aQJVGa7BLOfdxyx0d8PrOtbxb4+U5ho5cf4W+HRZoyaDaPwYf0tONtXEQY8SAuAN3eITeEnmWBpec3YwK2CauBfAS02ha35zmIeDrYsu/APdM4ACVjNXHVTpkqjT7mrf6twChJzkRlRaUaxPV6ef9aMuQPr5xDo3yo1lZsoSRtkqznuKhRhgLSTT5WqTFunDSMhD8HN77caMPaNVVllGV0hJkaupvw0hfx+PHiT9u0BCU+VWsDBLbBCsXsGKILGxdJoWZUPm3wUifkF0r9CfdvFkvXwferRVIIf6qRvD6zQPH9Y+t0VO4dKoaGSCpaCIEfmR0z6bwhPiz7uDX0lvqqTJH9jvMk6+vD0AoiwpkAG4fpwNjU+B2tHWqDKbuECpbd/1W8GkNLyT7zn4e0ymqyr2SRAe8h790bET1/4+IwVo+VtVXZFs/AuSK/vD1QxaaQUJvrNANopSxsn/heScaF1mejGlKpR+cRp+tnXMEbPlzFqqrt8vsEYXPmxlzE65n3R6K3eFugC1n4ywARytorO5B2Q/FiDuYvuSxd17CaqNJKMUfV03mcJi+4u0q7U5CFcT49g3MYJVsAMVY0TtCu17fN+MYB7/ARWLfwD7ePv0tByW0iX5oUWZ6oB+lccUTcZTBVrJNMCyUOYsQhUzKb1DqE/mq9fDCA1q63T16EO19PoZvqk6tLQuE0pMka1qGOcJa2rojHaqxFI8jXmWsdHKXPWTriryId624DXq8f9YAAt6x6B8+/EDLJl0DansEojqwi20qYTeTguWxvus7a/R8ao+TfiDuTYPh+C6X4ARnrjG1gEF0vNALKwU5l/l53N3j7HMM2rv31+kXkc2R/h/wr00BcNZz0egUy+ASsrZ7cx7Urim1O4n3URwlX1OhGjqvwWy2eK1k6TPD+LhX2OqcETQHt/gxZirrQWOAvHG2Fooyvt9rWpn/kG5CA63b5Kpu1zFLZYBtBn1Efg8+tw+GhPPPuUup37+1c3w286nIU98m0DZQntEWMCdxB9jmbxDFhRFsGSCcVSaQCtbvEVr1l4rVnCgzHOPw1cUv3jnD8o4tsIZL/sEW2fO46PYNh6BUvCBEvBAFJpaQedt6D6bzBvX8XdKxGvUHAL/GSk/9qGv75QRsUTNQTi1PAAubwuNkf6kGbPnWK9ZgAZfWr3tbzpJCzetfL2sbyzv10+p5VGILX48rewp0l/Yzu74rQsnnLMp3gjIJdhBRxjDYGPu/bUJug1A8ixor7198Np4a2GnTEGROIunsWxVUnKNAL5YZB+j0l/H7WSdQ01gwhfJEbhiQjMl8Bcz7uGvWOA5FiZCL9BlR2uCvYbyS1sozUHwzDmj5l4doI97/8IZLCex/5G9IDAvAn4LjfDufyOIy1Vn3nZKwaQcaURNTUBh6D674zTu/o+/Bmr78o1C8caY8og7ZHTZya6F7+zOX3qhgqeYbbVnbRtZ9RB7Ik90AsGUJul1lXhdWrT+mVcGQTNPzGjwmazSSbCN4HNdhoT0v3VYPzHhR4rslPQnll4FRaTz5jqARNUzQBCch0Ey9lzLJK/ziz+uF6uz+hFqIBKU7O1vi4PHxA8MKezap+Bm128+QekCdg4Wk0oIqWgPkulBnSVDCDia2erYWTsRKTrozzIAtatIB+A4Mzpo30nYWhdbT2SDTDDgAbTBGqe1rMxxnT4e4zCFCrDaVUMkIgvi389AGuP/pC+EJag7vM5jfbpy2KfMFjYhnVQ2v62uFnDLCl5CvXdgomgjbeksZyZ2ybq/EVVDCDJF/G/heQfqeKj6q+MUzuvUtuYtahGPw2D3m52Sb8HodqC2nxhPQMmykibgttjwfHnTMv69wnECKVCFQyQ+voXhdUYLIReTKQoVUuhSWP9k+FGvh7gH4AYxH2G2lRSA1Tpg1sw79/ABKdgyWg1UGkBK8MAMqpEfI3tfw979eXm0hylzRo0yRKkLivH2Rbs2s5uwCz/NrRvPBYTJIMVTfB6mOAMYwL3ERTWBGUYQBM6RfyLIP5Lrf8qg2V0sLpUmKH+JQ4+Kw/izrD2lK3WGphdRhezmOBwmGCD0SA5igpQs/sk2r9SdvMIHzXZzEeTVocDGsQfRKnSTgPq5efhvUZrXNHLiOZzQJ3FBIfBBKcZLbwv03WPpntkaN6s9qqcZMfu9eEVDbU/SMSfOZvnMWipM6zbpynZgwTnHPJ29sCYAG2r2Gi1o2Dwz4atuBFtugydM0ATqVsxaLmOgo9WWWbtD5raj9PLrZ8fwi2AebxgLbu6x/IYkL+kdQUOXcS3spXOWi7FBr2tJxsRaBdwCyJ+uh6kcyR8yN8Yto2fqxkk8CqFpZUGtmFXl7n/P8sUMB0Vcs8pAAAAAElFTkSuQmCC;" vertex="1" parent="1">
          <mxGeometry x="240" y="120" width="30" height="30" as="geometry" />
        </mxCell>
        <mxCell id="nS4Bwxo-vKO3iZAZe_Ir-5" value="" style="shape=image;verticalLabelPosition=bottom;labelBackgroundColor=#ffffff;verticalAlign=top;aspect=fixed;imageAspect=0;image=data:image/png,iVBORw0KGgoAAAANSUhEUgAAAIAAAACACAYAAADDPmHLAAAAAXNSR0IArs4c6QAAAIRlWElmTU0AKgAAAAgABQESAAMAAAABAAEAAAEaAAUAAAABAAAASgEbAAUAAAABAAAAUgEoAAMAAAABAAIAAIdpAAQAAAABAAAAWgAAAAAAAABIAAAAAQAAAEgAAAABAAOgAQADAAAAAQABAACgAgAEAAAAAQAAAICgAwAEAAAAAQAAAIAAAAAAu7RpdAAAAAlwSFlzAAALEwAACxMBAJqcGAAAAVlpVFh0WE1MOmNvbS5hZG9iZS54bXAAAAAAADx4OnhtcG1ldGEgeG1sbnM6eD0iYWRvYmU6bnM6bWV0YS8iIHg6eG1wdGs9IlhNUCBDb3JlIDYuMC4wIj4KICAgPHJkZjpSREYgeG1sbnM6cmRmPSJodHRwOi8vd3d3LnczLm9yZy8xOTk5LzAyLzIyLXJkZi1zeW50YXgtbnMjIj4KICAgICAgPHJkZjpEZXNjcmlwdGlvbiByZGY6YWJvdXQ9IiIKICAgICAgICAgICAgeG1sbnM6dGlmZj0iaHR0cDovL25zLmFkb2JlLmNvbS90aWZmLzEuMC8iPgogICAgICAgICA8dGlmZjpPcmllbnRhdGlvbj4xPC90aWZmOk9yaWVudGF0aW9uPgogICAgICA8L3JkZjpEZXNjcmlwdGlvbj4KICAgPC9yZGY6UkRGPgo8L3g6eG1wbWV0YT4KGV7hBwAAKttJREFUeAHtnAe4ZlV1v5EBERAQkA7SiwgoEqMQZRiFIDYsfxWJEVGwR00MaETUoKh/xBYbiYpgb8ljiYqKisAoYkPEICBtCiKCgkqJCpPfe85576w5832335kB7nqe39l7r7322qvtfc53B52z2p2H1oypd3Tmbpb2ecFHg7WD+cE9g9uDFUHudWw2Oy1YI7gyuDmAqq0tZ/Y56QisnpUEGFo/eEtwY7CkwzVpNw8gAj/T5B7syd7agU3Yho0QNmP7LE0hAnPK2qek/6vAgP9v+rd045PTQsjfo+nNzAPd2sSe2IIN2KJd2PjkQFLe8Ww7zgh46hF/Z2CACTZXPeM/dy28PQOorms50/dUN3uZdG3AJnnYhs2S6xzPtmNEoAbsi5EloH/pYCHY3trNfyGtNBO3QNXJXuzv3tpCW+3Edqn6JG+2HRCBGqivZZ6gcrL4AKRva9AZewqfnj7ke7odTc9TnezB3uw5yBZt9DbAB6n6Jm+2LRGo78tPh08wa/I5XQS9H3gL4PrMbRpA0xlsdaGbPSwAWqFN2AiPsUWAL1L1Ud5smwjUD6w3ZEwQ/xT0A2vA/Q5wHlnmzgyk6Qh21YFu7aJ1b1ttq0WgXfgEoa++Thrm7GPpiX1MgmFwDaQn6eLM7RV8vZMxuCbAm+D9mYcItKe3YUzwwVqThU7sco/+nudkjo/Dn3Ry2owPyuIbNBWbWg13sae/lzeIXwsDAm0ATfIF4W0UQNsH/O5GznmCDCyat6UvrWVnAm1dgy72Mpkm1GLgp+Bune57pz0vqLbpC77hI6TP7ehu/uRahPy5d1v6BNBrnvfuVgHkH1oelT4yNdCusQhOZ0FHfMSN5+Qh4wcfS9GBXnRqD2OTT//xAaRt903fPxJpy63hIevPQ30O6+5NBuL+CYMny9aAP7ULEX/2hUzQ/0ufoAJPGX3WeTNwczwkkDh5rKflegeVl2FDrGEt+tClLf29npU5yOLSxseGh6y+1BZfIX1vR3fTp8k8Nf4b7Np+qYtLP1gG/JDMm3xPG+urDvro5/thLEJGW/o6GLsHCfUvftqibsefDqPqsCjRD+l7O7obPg3U1vH9poBgEVjB2NPbL4BMNf8ARPug4H8C5OtJrcGnD74ZvDDgne0NQB8ec8oNWqvuX0buoQHEPwyhp5K27hGm+liLX4zxFZ8hY9CO7mbPe3X+viwtgTHAfgN8pZvvB7hjNw0fXdB+gcE20I7R6+mrvJ+GD9zXuf6VD7/qPDBjyL3b0bJPbf5c2KzXJ/fCZ8gYtKO70bN+BX8rfhMkrlcCbbKekT7kiWpHS5+envXCOj9QB+0w8PGm/ioDr37Y1Tn72Ef/wsBfJMOucW0+tFujb+rAZ6nGQt5dvuXqhHYJfh8Q2HpSr8/YL/9BAYIn/z3dehJYT6qJG9Qix7cDJ3MiayyeU7MO4qRrR8PoHvI2yXhxgA2s9QbAZ3yHjEU7ups8/Z39nPhrgkiEP5e+XuJgMAtr5N354DAN6lgn2H1MhmOT6ni0tu6xX2eQN1G1r9r8+Uygs19s+A4Zi3a0Ap/VyBW4bXNquAohP/Ic++7k3QwxJniV4FEs0FMD/OA0D0pE2MsQ60g4V/c1wYKuD0+d6Q4l9iCR0NPbpilA7e5Yjc3Gt/rCvL5W3/vr1TOjrQbO6CYDlLMvpxbatW1Gkuy784qOj+ywAiBoczu58TQEnjVcuecEewf8gjgzgMdeJifdoWSy9o8EhYR98lwEz/jqiwWqP/pOLJR1/QppV8qm8cxg8RW9WfGUwFgAfANAyrajZZ/869yOHWs0X9DrDYG+NwQk77rgd8FBwXEBRJKQNUnw+qSNO2Rii/7kgPENHQ8bq158JwbQaH62EjPwHC1oM7DdiEqdXSccAzAy2XXGcxL5+vfPr8N8Qc8dAe/ZhcG84LUBRLJJJva8KeCdfnmALGuG2aD960YGG4aRct52fTl8JwaQsu1oBT2HBW0Fbd/8Bq6/gwmCJ8TAjGYLgTVJrqvyvNdN8sfS3z04K6jXvcmB971gj+BDAYXBWnQM0h128xpzPeM+uW7tbsKxcvhe/Ze/wtqVXQCcNAIPkXxgQLeGGSJow07HbzN3PUIhTiyEvD8H0c08H2t/H/wx4J3d/+BjDTzm+MA7Knhi8KtA+/z6D2tkL/b3eodfqRbzVt0EvuknLHQTg5VGK7sASJqnwtYC2LOLikGrQVL2pjB/0U2giyQhTyLx7cPBbsFnAk40QGYYMcc6Tv4XgvsHpwQkDZ11jwxXuyT4DZ0hNMwX7ae1cIeouGuyCSbER9CCgEB41foBdml4vl/7hUpC5B3frb+1a9H1nWC/QOKksWa8hKwnnzX8XDszQDdwrzenDyHf1699XPEXBqzjdqHVV3wnBpAxaUd38ScnESI4PwgIionn1HgzHJA+pHw7ap+cUuhhAevBt4MnBxIyJkLeRFrWug/rHh98I3C/eTBDVablLLX5oWEoz/cKfQsA3/0GGORjpu96RLDqe2/Qn3E9Ye/u3B+URHl8YPEPK3M7WZvpPFHoqif8bzL+x2DYDYUN2veW9Em6PvkagYfvEjEZVEjO36lar0SCQGXjWN85vvKfGVwcEAxOPi3wpFyX/kYBVBPQcpbnsR/7DJJ1zWRbdKLbxKpn0F7y+Jm3MMAnvi/0T1/xnRgQi0rGi9ixH/rUWeVWah+DaoI5JQLDBxmMPFf224Krg35ADBTB8pXASYNGO9HM9QusWTRDD/wbyx62fl6AT/iCT4OKgHliQUyITb/Awmpi6Z7GGH9rgSA3YRqUpL4SDALIgn7SwhpKVPa2wd7B/sEBwa6BxElHJ45wKoAfX1yV7Ht1wBqCyBj+qkzGCFv5j1SwHb/wEeL9T1+fiWct3ksyPis4O/hJgP+3BKORMaR1f/QSq1HjhfBopLJhMjixYbBJsGWwdUDCwXbBDsE2gc6n2xSQiVc/rTKXp//N4MjAU3ZM+icHfDDxJb0qkzbyXxi9rzOUZHwoeHiwW8e7PS18Y0CfQmAsIbMwuCK4Kri6w6K01wT8BOVP2cgNI/UPnK+bDRQI834BCeVdTLtVQKJJ+ObBfYP7BLWKM1yGuPowkv1E39lLM/cfwYcD/sByQnB8AOHonsGvA4oCfasiadsGMe7nAbGCuN7/OeDP1kcGzw/4G4NE8okPp5U+LfHxAKS7HHGIbgz4Q9e1AQVBYSwOrg6IIe2CYFJkQg/MaowaCxjNNc11dXPwx67/p7TD1mL0x4PHBd4A6TZXPe3nAteeCiOEXRTRqkbYZML4utfuL3eGVpvpHxKcHpA0ZfstsTOexJQ+MbZQ+vL9MbmDiNmEqTp0ZFajHIO4gjmBVCCgckF/8/6YivxZ8J/BawKM46RUIoDsq8EUxfmBup6UPrRW26xST206OFYZD/4AtHZnpb5ZJBq/XjrzglcHnw1Yc0Ogz8Na424eyAm58cCRM8h921HvSbBHI+ZJApscF7wxoPrguxYD6bM5Hy4YjzFcPWBxh1+l5bpifSWSzXr2QJcEH94mwfeCHYOrgv0CdOEY+6wKpC28Jr8b7BosCvbtWuczHCF4+IuPlYgFr9Utgq06bJN22+CeAa/buQEf2KyveWC8evCa4MSAGFqM6U6O2ACl0EkBm2C0ir2OaN8f4NhohC4MQ65e+4PWqGunTPK6YO+vFMGx1hfRGesaGzbgdsNGCn2PANKHdrT8Ex+QISZV1/KSbbLfmQnizz7GnlzII0cQuiyOhjGVR1V0chRZBJzAagh9vkr57b5WALGWPk6O5WBEliMD+IDM8LHDHqcUqcnoLMun1MU3Y/OO9LGNV90+AaTt7Wh8T/xhHTHTN4rjxQEfw+wBTD45MPnkRtIux1NuNQZFrws0hI8SDbLPmL9yHRFwbUkYxbjqcm60Vh38hFoQoP/EbgG6pt3ZTvdoDXt6Ax2XPjbxK+WBAaTN7WjsJ370Y4P+wwO+C9APiLHJr/F+XfjSROPrujFbDFL5M9O38nj/axQ8bwYMvjx4beDv33QboqrHc+114iM3yhZh/DBAN4GHJqKnXTG1J8n3dL88fWy5KNg2gLz92tHwJ3qMQ5XaOQM+Ci8J0A3qSSfWxBw+8SYXELmxKBvGTDw0Gt1cy1YnRvkFqmF1TLWeETw32CyohNEEdCzjDTqOfiRgHwIFEcix1jeCU3ywt3aY/M+G54m3HbbNMF/52D0i+O/g1gDfQE08Y2LqYSP25ADCf3KzwkhHCQgfJhpMov1A1AF4ztPyLvt08LSAL+dKOEKAhznDvHR0Oug7oWOwZiaLAF8B9KqAvV/KoCMLw7EtdjFXbWfuPsGTg08EvD5qjIhZvUmJaY0jMdcWcxHWiqXq8COzNe99nahFAO+m4A9lXrlrwvtYQCAISCUCBnTUOZJsMHdK/0fBCU6mHVY8RWTC3arzX7L6p4GnD3v6hYfN2p/uCK2f3qHB6cGiwDjY/jG8G3v8GktiTKylmgN5K7TFUY0gCK8P+KsVDnFVWbWfS3/r4HnBFwO/6HWcdnFwavDEYIOgEsFkn5qI+q49JnPPqgtmqP+M6KUApGoDtmEjtlZaL4PHBR8Irgqqz/SvC74cvCggRh8J4BM7r3ti+vrAQmMfYr/KkH/xwqDzAxzgCvNj5YPpV9o0A04Cv5377znWLggoBgK3blCpFgJ9abt0Nu4GtVCcn2yrrg2jYIeixKvXxCuHCPE4JPiP4KoAnyrwmYPwlGDzoNK/ZYAsBYAcfWIq1VjLW+mtwdgjlnjVY7wfgm/pLESOKrZ6d09fJ3+c/gVBDRT9y4N3BfsFlTwF6PJkMF8TUeWn0q86tZ99awGi/6+DtwWXBX0//ie8k4Prurl90kLoRqe3yevSZy1xMTbElNhCxrodrSJPjeIniY7/JX3A+EUB5PVoFT8qPJ08tpFoT/370786UJft/PCOCuqtYCEQyJqoDKeV1N9P/L2yyxHBWYFXtvZeEd57gwMDff9l+sw/OoCMhfNHhsc8uowNY2ILGet2tAo8CYwn+pT0MZaTb/KrsxpvtVMAfuS8Lv1KfDA9Lfh8wMcResSV6fMu3iiQKISZLAD2qSee75RXBJcF2kXLr5yPB3zL1ELNsDnl2I4crwjIWBibueExD4ihtyixhYj1TPvZbDTeh5W7ThZcGGB4fX/dkPEOAaSTOn1QeJ6a1yMQQg9XYqWdMzg++EVgcGgXB8cF9aNxzYynM0DoQqdEUvnovDqotpyT8QuCLYNKxMcY0XIrsO4xAWQs3GOr8H4VIMMNQCzpE1tiA6mvHa3kp8bsGzsMSK3c74VvQpTV6QMz5w1wQueHRUKl06eVGD81+FbgXrQLgpcFylJA/SIKa8LU1/PCaLgycG9O58eDhweVWFcLUf/hXRWwvn8DVHv1r3+TEmPIOLajlfjEMYP+2vRxjIq9I/AVwEcRhNEGwgKYGx5VzroTA8gCaEftGtb2nT4gPF4PrBWcEk9WusvpgjdeqnYcmEU/CtyH9hPBXkElEgz6VP1emEnWH9QJGQuGrn1D+sgQQ2LpLUCMIWKuzoaxsh4mn+QYoNvSx2iDRfCg6qj9h4WPPLInBVANfMtZ+sRpguS+zPxNcEbgfrQfDzYPIE5WPV0Nc5QHshbbfdM/Lai6z874EYGkPdi2baBvNUH2ucKvDdA3N4CUr318Moa0xogYa1uNAWtXChnYedkdp7jOgaefE6mMbVgjTu+dPn/kYO07A2i0Amgl2ieBrzqflHH9ayQfY89qRZsn8mNRlXl6hE0W9i0OjiwK2JtkmNwd0j8gkOQzNll82P42QN/DAqgWQPXn/MwhRyyNK2NiDVXZlrMSnjr5leyNcV5VFsBxnU3VSVgm+QHp3xSwlp9+kHPtaPQn+5MEA8zaNwXuj95PBgQeqgluOUufzvGz7PSAteLU9DcMIPZEVt/hQf8Q7Nb0lt9H+zbOPL/p0fvgTrYfm3t1/Jd3ciQfeWNLrKH+/i13BT5N1JHZEwN9l3t14eg2nT1eW91wJMk7h+GJ+HA3aSKUtcXheuLk29Z1DwnTVxK2XRHs1wn2k4de1+6T/mUBa8CvA37OSfrs2FN4QBjv7Zjw+slRjl8IfNgB/7DTLwBlN4nMDQF2GFNjTMyhvj0tdwU8Ddj22csr3ErFOYz+UGeHst2waTR8u4yuC5D/VAD1iwVeP6CDdCLHSVM3Y74r0G0QnwMzZJLQ636Hp19vjq9nvFkAsZ+JaRi9x7kZP7Pjqa+KuHaHMLGFmO3SCVR7O9ZIQf5bGMgbU2PMemIPDYtFOzsDz+rg/OjHQCvTSoW3e7e3znfDptHoLTO6JkD+i83M8oF2/XaZf3wnQ4MOr9bCbrrqZ3BQsChgD/CPAYQfyvHzznnaEwJpUIKYk//KvDO4KaT72CmtMePUo/93gQlUTxEf8YuC8eo3+cZ6flmg/sKamS4Bd7N3pY8zGGTib+1470sLmbx2tPRp4PnKvjpAz5ndNKcSSAZolzD4Gj43eKCTaZmv8k7Bcx9O8tkB+wDe19LR6cjnyn2sE2mH2d/YtFFecdvPuceS7Vdv/ki1Vzb7Wda8oltf/dCOfTPHXhTMVp2c/nXDkca93xoOa4wtsbYIyAFETsjNjBIOaezz08coqtLKtFKvD8+rc5hRFtF6kb00QNd5gVQTavD4CPtlgCygyOBBBMuANYzyqO/YT4bv+kPTP7iML0p/hwBiz2G2GwP+zvvNyKHvop3WWF293CZQtUcfHh0+cgsC3vGQc+1o6dP98XFRwDpjXONOLiDsqnFrmNP1qMl/QpTqrJWIQb4//67b1CQPssE5jL4wQB+tTtuGNXLjIPvjAFnfiZykwwNpWDBHkhbBDwTouCXgQ5X+WcG9A6gWTMtpnzUGq228evO/71/ywk3X+ct5D956yRvut0FzEJ6wwRoHdYtqAbj/YZljv0sCih8yFu1o2adzTwqbdTXOxh4+OYHYZ9qLgGQY2EPSZ0NgEriS/EPFKelDGFGT2DDLowbH37uc7nU6mTpf+7wm3NvTwPgzwQbdWmwdFAR9QKzeBPys0lYThUylkbUHr7PaFvuvPYf9lvzTFve+/ab9d7rjxv13vPUJ698TOxa8fsv1eK1BJo++el+SPnIXFF6VC3sZqnF8e2ZYi9++cs0BfHIDYav+NIypPKpxz4giNgK1+kz+t8tGdV1hj3SrgWeFi85FgVd6XY+sCW0Cn7H709pfnP7cQHKNY1pPN8VyU/CbwJPv7++wlqFqKwn01vjzSdtteMef5+2y5MwHbtkU40PXXP3kbmW1GZYFcEL6+PpdmB3VApdX2zpPsbK+Fr/+wydHUo2hvHG3BE+jWfTGgA2AG9aTT0XnldjQyGnpxoOaWtlfiAB6+QDbuhOuOpDVmfekjyyV31y53bgG5NjwpH4RmEz0XxMsCAywc66lbXgPWrP5v5Q999Vbrbfkh/tss+T0Xe/7p7dut+GSBftuvyQ3wG2HbbgWNv32yI3W3oZF+yy9MRlC+vOB9JH9GsyOBu3rnK3ryQnfSujg4HkTmBP45EpCvh8D54a2bOaindM/O0Bxff+wsUH/Ufr1+s1wTKpJPT3S6OedfP9uZS0+WI6PTx9ZwDcHNhiEeh36x5v+qTbYFNTC4NrAW8FCCKuhJuiPXm+tXTO6+aWbrbPkd4/Y6X9vnrvTX/44d6clnPyb5+5820nb3aex56H3mvMcVj1gqa2Nku7hvp7gT3d89jTWVX5Q3yLgNTk/YN96EIiHh4KckTsI/a5tGD40yrGCVtPLMsGX8SMCNoIwmI3YnKR8Kdg34DplE9aOh1jv/px8iET4G7ofFMeLG8n26sYWK5x90Ydt0KZt0zyxi4Qzrx4CxRrH6TZ9ZJBdIz9jmqJb9x5Nga2x4T3XWG2dOfeYc8eS1ebcvmS1P1/w+1tuP+bixWsde9WNq+295pyjvn/b7ac+NfH5+fIxQCdFyl5bBdBv26axiViMh7AXXzgo5OSz3Ri9+G0BkyvmyR05RL9rq79hLyUUS7unc3bAQuDJwgnf9/DrVUPQJkqevGOy0L0O7ZT0T66y8zrZ56Q9KPhmYEGig8TSfirwp2i6A+nScPkG6O9VhVd/4Jpzjgzjtlfm+r/yYdvd/uU9Nr/jmC3urb3fOHTde+7ZLSDRgwJsbDbPPPux9nUBpF/taHxP9SF9XKAt9ZVgzpgjl+RUqrluKrAyUGgQUWKfIKv0uvQfE0A4bOU1jAk8DPzhWaMTL+7WO6c6XwHbd7InOpF21+A1gT8R1UX7/eDNAT+Tdgs2DrT3Z+lfHxhQfpfvHMwL+Nj7ZLAwwo0+fudvsPo9fN18fu81lvngrDHMsmXIJO8XrrYd1Un0/Vxm4SgDfKDgoEcFiwN0c9I9EOTOnNEntxL2ur7hYVwNoAtR6rue/ucDf+YspyRzE6FBgXlHp8CEq88ksYZXxje7iX7g9w7/lcFXg18HBtwWX64Mzg1+H+Dn/OCSgNeYcsu02fwXmbuW+T3WWP1NaaXVD1haQPL6rUl+QSbUe2AnZAz6a8Yz5vAZpw3S57tC/TVnNZc/iQy5HqEN03tnUBfWU09FMfeH4LmB1A+8/Im0JnXLLOIkss8ZRUGtUJx1TPJIrmP0DLKH74kHB38X/P+AD7DLA33SZ1uu0AUBBXF68C9BXuvNrbB1jtzvky0KRRpP8rBbPz+YPntReDsE0CC725nxP6uOZ2bZ7wL2wU99Jae1KMg5uV/trKAvzNgioP+FYOsAIug61DCm8CA40g/SYa+rAq5pqDrG2IC/PX1kd4IZ0h70sQZU3RmOEPZTGHsFvMrAQ4Idg80D90h3GTo+oyXZaN+O68lbRmjAQNtSPyP/q2Y+zhhD2DMdhD514sdnA2IEai5rUZyVueZDSiEFbS/L/GEIdYTTwwKrzERbk/zvWagdB3ZK+slwfGgn+6whcrCx06CQBECwa8AXZgz6xFrk1u4mKBhi8t5urM3dcNRGm/lQ9BXz0W6FxTGqgglMYnctzCdnfHFgXG3N70HqPqET4gpEyI+I09KHCOREnG4WjfOhwU+PPHuDE7u1BKgWHHZAfIPwMfZfDEITCaQ6SMyiDiapr8d395s7OYun2pSpgYQsMVunmz06rf4d2fH0vRtOW8O+AHpfUHNqjsn5MjQ/IwQRILh+7b4sfQiF43G8EZ7Aw6BunjX+RDovfZNhq0rHXwqD62zY60L5fut+6FnUQZ3Oscbk8MuAm/ARMEPKtqNln6wnToNkvhg+8eVbatsAqvu1nOl5mvyjo449Afk0+fPTH8mlju4e5s0BwvU9wdivRmXDmlYyEJ+MVvbjY8WA64wbGtzHdrI4Ca0bcLrRNeJc+n1yL/Qs6qBO51ivjlenz9c7hH74yNEHrAXKp9sQt8r+AR+flwbEFN/+O4Dcqx1N39Mc7R2Vfwr6+STH5BpSduTD5/lhssB3hBWzIDxPGk5PN6nTpGLDe7pNajL6+2IXp3PEkU7ApPTlGRt4ZBZ1oA85Z7tleE9sZtpkk1Rt7djLNHwoPyU4JbgkwA9hMp4aHjSanlZi4k91rpelxIW9zaE5JccQvowQDrv4M+mzUINv7cZfSyv1q13+ZFv1kYgfBux/TbBVAJmQdrTU1heFgSzO8svggICbQFKvY1p1jVYAyq+TziAdzHMgHhI8O3hXcG7AzzvsEfzJFn/+2PEoCr8rhumNyKSo6vt8NGCDuTOX5BYi18ahYfDwFKyf/oIABX/uWq5kxm8NoP613HKn9rQAnxc1BvC4TqVz7qDx9w6D5CtPe1Xw0WBeABGYGhzXjlUAdc3O0cEX9auCjwTfD64N6r72+Q3+jeDYYPPgjYFzL08f6vvTcqf2NCf/GjXsZ87MITklt5C5bkfl6VU6NzyN9mPQK4Q/NEDLXCEta0pPg8L19fOA/RcHfPFDNSGMlX92+sjybvPXC+P5gaQs4/EWQF1zZtYZj37LTcUfmF4bHBJsFUibpsNHH2suD2bqNWouKFL2Mme28OYGkDluRwOeVtJrMsdCK8ngUlH7dOvcuBtOubEyXxJN7A3e0mnVrm44UgCMzwiQ5crz2vtW+lJN5mQK4OwoUj+FRv/iYP/AU5XuCGnraeEgC7gRIHzsF3MzMcmHOdg9628J2MtcmTtyCWlXOxryrMZ9NTIoNKi+S64Kz5M5ZkVFdrxkAaDzJ4F7379T0HfAvXfM/I2dvEGY362hmUwBaAsFc16ALX5Q0ee0S8hgG/uYkL9O31uTYuF1Bam3HU3tqf8U4SUBdpkjc0YOpZpbeQNbjdwss4sDFFtNBuGs8KQaYHmTbQ3gE6KAfQEnHCLQfSeUf3rmagDOz1i79Cescb8CXEOQfxyg29N/SvoQH3TKMcY27eMG0v7DmAxpazua2lPf0EKS2cvcmCtyRw6hamfLGeNpdT0ycjri1eJGH+p04DTJmQ5Cl8Z+LH33fn6nnKD3idMHvTlQnhtEH9SHjHbCW9TBeeeQk8cvAb9J0H1xYCKVCashbXtuRtrxX90cCbM4Otakmxrvd0cLe5kTcwRvXreDceiG42vYxIV8vaIQ5XxYAK+a49OH+sFouZN7qmujLF8UsDdf17sEkAloR8sGlp86yP8o8Ceh+pA3yfDQDZx3LqyR9+V90r8oQOcNwa4BZNG1o6Wx2jwMb83fpL9FJ9CXd91kWnW9Iouxi+8y82IBvKxTTA4nXXgExKvmlPTZzMTzfvMd9+z0IQumHU3tqa76KvhOUaldshzj7GXBdYGFYoKRNcnwSD5w3rmwRhK8fvrowvc9A8gEtKNWp0H+WJjIAl5LkL60o6k91fW0qGEPEm8ezA25gohJ9alhTvRhYFn3lYBNfcdYbfAODiCD3o6m9jQxb48a9gAndSqxy6B3rJHE7BTGmYE/yWrCDAi6F3VwH+fCHknadulfGDw8gExAO2qf6j8iQ+18fydQ41fXTKZvbPcv+5gDc0KOpGnbW0UEir9s4eStXcv1w5h3kD8PfReGNSWqCTknmgyuJ8vA101cs2mYG3QT8hjaH6sAlNska7YdoKdjjRQdv1R4TWHj+YG2qSesKZEx3T1a/hCwj7E3F+TGYjZnYU0PqXjjqLs8wACSTmv1cVXuEECDTko7M7Gn+26bZdcG7MefVvcKIAPdjtpnDXr/lnCOdYuDRYF7ONdqWfaGGRRQeSTnggDbrg92DaBBtrUzE3saS2407K0xNwfkhNxA+tOOpvGpISSZZGOIBtheER6nD1K+HU3+qZ5HRYXvuyvTH+1vESSzn3wsMMnjKQDk0eEaxpLJZ8x/MUUswOMCSJvb0eSfFhEfoxcHg2I+EwdvqMW+hx4UCU4iBvnxYRH8LDz+pAvpQDua/NOAHh0VBvsH6cu3HWsHkzneAhikDx0WwHvT155p+fIuG3qSiTm+1uQbc3JALiBz045m8On7iI8RvkIxzPeRRXB+eCZFR8KaNHESLaYT0jfofOxJzjse1Jo4ZK8JuFK1z+IYtE4eMsofn752vLUTYG48ejrxoY174Pd3gpp8Y03syQFkTtrRCnhabY/NXgah/0V6TuYMuMUwGdMMKMEA0PsC9/1yw2kfY+1T7ZloAdTkv7Tsf2rZX1tty9S4u7WQv97t43eWMcZ3Yg+Zi3a0Ap8aelj2NBkaqMHfzpzBGCs5g0yvCasFgOxHAvc9I3330S5k+lT1/SqTCwNPm+v7axgz59oXp+++n2ayI9ebEOWdH09bbf9qFrCPsTS28Ig5VOVbzgp+asBR2degaKivg29nziBPpAjUPS/rD+78Qk8N7Ccydt9z0l+3kxu2j2uZpwAWBdpmAjsVI41rYBwTuN9nRyRam9TzyPD/tpuTV0SHdvUXgdGSf1SnocoPVTrTE5xKnfRa5Eu9XwTnhud7alhyqq3KkPyfB/xZGHIvW3gfDkzKRenfD2aIk4h9lUwmc9cGiwJ1DSoA7UBH/YPUx2F05Hp1rxM+fzzyiq46XNNvlUHHmQH+eICIpb9+iDHEnn3fmomV8SBwOv/K9DEegzVaR/hDhX+c0eGwliOSA/EfNqLr3xmE5LejpYlj/I7AIvh1+n4cYZsJSnfETgtgYZmvBUBw3Y9b5YuB+vn+kKpueBb529JHfl+YIXW1o2WfnuS1w54fsM6Y1TgSW4hYV1sb5sp+1CJ4bYzBiWq8Dv0i/C06YwcVgYHaIzI3BejZr5M3UN2waSw8BvV6Zm/GknspT6IolEEFUE/XPpG5OMAO8JpA6icfvjZavLeGhw5I39pR+9Qubjj/mGSsavyIKbRKJr81ra1KK/OEMAlYvb78mFkU/i7dohoUg7Fl5hYErL8kkD/symNP931i+v59gvVnBNsEUD3VFAB/QKkFwD41qcdmbDJuSf+wAEKP+zWM8tBG2p8G2MCrZvsA0hf6+r5d+lcEyBojkk/s4J0QQNXPlrMKPquRb4x9ODCoCG4M/2Gd/TXwVPh5AevAiQFksNrR8k8C7unbLX1PEzrY63mBhCzvaW8A1tWE/lXG5wbawB+29gogCoT1o5G2vjpC6qAYKDoIHRbCg9L/TYCcxVaTTwyhGteWswo/MdYgvSF9nKMIrGirnPHjA4jEQ6cFyP+ha+v71gRnaigZWPS9JzABtPymNpHI8Xf7RYF7b5L+OwMS4LpT0lenbVhDieRKJ6dTfflMN2GxHZSxSbetcSJ2ELF0TcO4MzxqERwfgwnEHYF/xfpTx4P/ggD654CxcyaCwFlQnq6whlItlEMi5fWKbvZ/fUCyrw2uCrgNXhwwRgZcHlic6Y7cLvSHUbXtIxFCjz5Y9L7Lj+jmkXEO25Q/Pn3oTpn81vT2ZHm6/ilMnAWDiuCj4fOeZd4gUDDeGvyC2CKAxnMSKUBPI1/XnEZPGXtcGvCtwOvhgkDbkEGWL38IHfrQMIY8TP7GmZ8foA/b8aH6RHFbHPAtdmMCj1hB7DuevRvhVfVRE3FEjMTB6jjJNkjwTb5yzJm469LfL4BIDLrHonob7BFhbhN199tPZu4BRWFdW9jLdLFBOb72FwfoxebqF7w6pm9xWwTIHBFA4/WvlV7Fn1xjnsa/Td+EevXhOEGoAYJXUWWfkzlJvY4HtTVJzD80+ETAqcOW0wM+/CQSOp7iqnsfnjXaX22tPtBHpiZcWewgNhB6feU1jLvKw6ubk7goICAWQz9Qg8Y1cPzhR1Kv42Etga1X6u4Z71KEmatJLVPLdT31TLw50N5qo7xhrb4TC2ICjdeXVvpO+NRB3pXfDQgOQfM6HBYs+bwilP1W+vcNIPSO59Qi2090vzCQGUacTH3gr5pfCbCt2qWtw1rst1CIAbGA1NuO7sLP6uhp8ZNAcTXWD6FhwVPWq5Pf8vMCiAIY7wlGnkKoNwK80ajK7xfBhQH2YIvX/2h2M4ePyp6WvlRjIu8u3dYr9Nh4auA8GY5Ha71CkXlViVbVXdhT6ladL48m7ao2yBvWVt/wWaq65d0tWk6s1/Zj0udnGcGbSFDrrcE/2KwfQOptR1N7qoufk/VXRN17WNLl6xM+4itU/W85d8Mn71RPwI7pXxQQNE5L/yehwey3yHm6rk7/rwJoItd7u2L5pzr2zNRlAXuT+MnYhm/4COEzvs9SFwHfgQTmU4FJHu8p4716c1n3tPQhi6sdTezpWv4iqD2cYN/h8oa11XZ8Up++Tsyau4G0AcJV/inXwPrB53hQW4PN3/O3REnI67sdTezp2k2z7KTAfdlrrCKoNuOLVH2UN9uWCHDleu0+Kv0bAgI/7Eu7JuInkds3kEyg48m0VQd/6ft+YCEMeg1gj8nHdnyAql8tZ/Y5NAL1u2CLSJ0TEHR+P/s3AMY1AXyZS5yymjj5k23RVU/uCzLWjmpDtQ+bsR1i7ez7vgnFxB71XVn/ky+/qDlt3gDvSZ9TBk13wEleteVtGVOAdX9tgj+Zv1Jm2SwNikA9eXzY3RIQ5BpwT+El4fvv/SRtIn8UivhAoqi8TXZN/8JgWPKxDRularu82XYSEahX8I5Z/8OAJJB4P/5873Iq/yGQOLkmUB6tBUKRDLqe+6f+6Mj5U9O92NviwyZsg0j8oD2bydnH5CNQr+G3Rw1FAGpC5J0R/g6BVNeSoH7S62mtsttE9guBevsFBx9bpLpW3mw7jRGoiTo4ehcGJMEPME6kJ5XXxLGBxGmvCTo84yOcTIvu+trgw5Lf/ehHJ7rdBx57Y4NUbZM3285ABOorYb3oPzUgIYDbgNeARQCP/yDzwEDaM50vB675RvoPdjLt/oGvGWRMvjcNPPZkb4jEz175TShW7KOe5idk68UByfGk9gvhg5mr/3bPdV4L5eSM3x9YGMyhg1OPTvjswV5StUHebLsCIzAne3ltD7sNSDSJNLG0JrdfJMq4pp76D2Wdp5492XuWVpEI1Pcv/9p2ZUAyObkm2xPfLwbk4DFv4lnjqUeX/4KXbnPl087SKhaBehvwT7fvDkgu8NvA8bCWQqinHh3ogmZPfRuHVf5Z38v7x9qfBSack22/39Y51rBWqjrlzbarcATqLwV+8/9rYMJJNB92junX5CPr3wlmv/ATjDsz1W+DveLIOYGJJ+k18cwhI9W18mbbO2EE6m2A+S8J/hBYCPThSbOn3kjcxVo+4rzat0j/qx3oQ8z5k7Jh3NUf/werROThKFfIMwAAAABJRU5ErkJggg==;" vertex="1" parent="1">
          <mxGeometry x="90" y="120" width="30" height="30" as="geometry" />
        </mxCell>
        <mxCell id="nS4Bwxo-vKO3iZAZe_Ir-6" value="" style="shape=image;verticalLabelPosition=bottom;labelBackgroundColor=#ffffff;verticalAlign=top;aspect=fixed;imageAspect=0;image=data:image/png,iVBORw0KGgoAAAANSUhEUgAAAIAAAACACAYAAADDPmHLAAAAAXNSR0IArs4c6QAAAIRlWElmTU0AKgAAAAgABQESAAMAAAABAAEAAAEaAAUAAAABAAAASgEbAAUAAAABAAAAUgEoAAMAAAABAAIAAIdpAAQAAAABAAAAWgAAAAAAAABIAAAAAQAAAEgAAAABAAOgAQADAAAAAQABAACgAgAEAAAAAQAAAICgAwAEAAAAAQAAAIAAAAAAu7RpdAAAAAlwSFlzAAALEwAACxMBAJqcGAAAAVlpVFh0WE1MOmNvbS5hZG9iZS54bXAAAAAAADx4OnhtcG1ldGEgeG1sbnM6eD0iYWRvYmU6bnM6bWV0YS8iIHg6eG1wdGs9IlhNUCBDb3JlIDYuMC4wIj4KICAgPHJkZjpSREYgeG1sbnM6cmRmPSJodHRwOi8vd3d3LnczLm9yZy8xOTk5LzAyLzIyLXJkZi1zeW50YXgtbnMjIj4KICAgICAgPHJkZjpEZXNjcmlwdGlvbiByZGY6YWJvdXQ9IiIKICAgICAgICAgICAgeG1sbnM6dGlmZj0iaHR0cDovL25zLmFkb2JlLmNvbS90aWZmLzEuMC8iPgogICAgICAgICA8dGlmZjpPcmllbnRhdGlvbj4xPC90aWZmOk9yaWVudGF0aW9uPgogICAgICA8L3JkZjpEZXNjcmlwdGlvbj4KICAgPC9yZGY6UkRGPgo8L3g6eG1wbWV0YT4KGV7hBwAAKttJREFUeAHtnAe4ZlV1v5EBERAQkA7SiwgoEqMQZRiFIDYsfxWJEVGwR00MaETUoKh/xBYbiYpgb8ljiYqKisAoYkPEICBtCiKCgkqJCpPfe85576w5832335kB7nqe39l7r7322qvtfc53B52z2p2H1oypd3Tmbpb2ecFHg7WD+cE9g9uDFUHudWw2Oy1YI7gyuDmAqq0tZ/Y56QisnpUEGFo/eEtwY7CkwzVpNw8gAj/T5B7syd7agU3Yho0QNmP7LE0hAnPK2qek/6vAgP9v+rd045PTQsjfo+nNzAPd2sSe2IIN2KJd2PjkQFLe8Ww7zgh46hF/Z2CACTZXPeM/dy28PQOorms50/dUN3uZdG3AJnnYhs2S6xzPtmNEoAbsi5EloH/pYCHY3trNfyGtNBO3QNXJXuzv3tpCW+3Edqn6JG+2HRCBGqivZZ6gcrL4AKRva9AZewqfnj7ke7odTc9TnezB3uw5yBZt9DbAB6n6Jm+2LRGo78tPh08wa/I5XQS9H3gL4PrMbRpA0xlsdaGbPSwAWqFN2AiPsUWAL1L1Ud5smwjUD6w3ZEwQ/xT0A2vA/Q5wHlnmzgyk6Qh21YFu7aJ1b1ttq0WgXfgEoa++Thrm7GPpiX1MgmFwDaQn6eLM7RV8vZMxuCbAm+D9mYcItKe3YUzwwVqThU7sco/+nudkjo/Dn3Ry2owPyuIbNBWbWg13sae/lzeIXwsDAm0ATfIF4W0UQNsH/O5GznmCDCyat6UvrWVnAm1dgy72Mpkm1GLgp+Bune57pz0vqLbpC77hI6TP7ehu/uRahPy5d1v6BNBrnvfuVgHkH1oelT4yNdCusQhOZ0FHfMSN5+Qh4wcfS9GBXnRqD2OTT//xAaRt903fPxJpy63hIevPQ30O6+5NBuL+CYMny9aAP7ULEX/2hUzQ/0ufoAJPGX3WeTNwczwkkDh5rKflegeVl2FDrGEt+tClLf29npU5yOLSxseGh6y+1BZfIX1vR3fTp8k8Nf4b7Np+qYtLP1gG/JDMm3xPG+urDvro5/thLEJGW/o6GLsHCfUvftqibsefDqPqsCjRD+l7O7obPg3U1vH9poBgEVjB2NPbL4BMNf8ARPug4H8C5OtJrcGnD74ZvDDgne0NQB8ec8oNWqvuX0buoQHEPwyhp5K27hGm+liLX4zxFZ8hY9CO7mbPe3X+viwtgTHAfgN8pZvvB7hjNw0fXdB+gcE20I7R6+mrvJ+GD9zXuf6VD7/qPDBjyL3b0bJPbf5c2KzXJ/fCZ8gYtKO70bN+BX8rfhMkrlcCbbKekT7kiWpHS5+envXCOj9QB+0w8PGm/ioDr37Y1Tn72Ef/wsBfJMOucW0+tFujb+rAZ6nGQt5dvuXqhHYJfh8Q2HpSr8/YL/9BAYIn/z3dehJYT6qJG9Qix7cDJ3MiayyeU7MO4qRrR8PoHvI2yXhxgA2s9QbAZ3yHjEU7ups8/Z39nPhrgkiEP5e+XuJgMAtr5N354DAN6lgn2H1MhmOT6ni0tu6xX2eQN1G1r9r8+Uygs19s+A4Zi3a0Ap/VyBW4bXNquAohP/Ic++7k3QwxJniV4FEs0FMD/OA0D0pE2MsQ60g4V/c1wYKuD0+d6Q4l9iCR0NPbpilA7e5Yjc3Gt/rCvL5W3/vr1TOjrQbO6CYDlLMvpxbatW1Gkuy784qOj+ywAiBoczu58TQEnjVcuecEewf8gjgzgMdeJifdoWSy9o8EhYR98lwEz/jqiwWqP/pOLJR1/QppV8qm8cxg8RW9WfGUwFgAfANAyrajZZ/869yOHWs0X9DrDYG+NwQk77rgd8FBwXEBRJKQNUnw+qSNO2Rii/7kgPENHQ8bq158JwbQaH62EjPwHC1oM7DdiEqdXSccAzAy2XXGcxL5+vfPr8N8Qc8dAe/ZhcG84LUBRLJJJva8KeCdfnmALGuG2aD960YGG4aRct52fTl8JwaQsu1oBT2HBW0Fbd/8Bq6/gwmCJ8TAjGYLgTVJrqvyvNdN8sfS3z04K6jXvcmB971gj+BDAYXBWnQM0h128xpzPeM+uW7tbsKxcvhe/Ze/wtqVXQCcNAIPkXxgQLeGGSJow07HbzN3PUIhTiyEvD8H0c08H2t/H/wx4J3d/+BjDTzm+MA7Knhi8KtA+/z6D2tkL/b3eodfqRbzVt0EvuknLHQTg5VGK7sASJqnwtYC2LOLikGrQVL2pjB/0U2giyQhTyLx7cPBbsFnAk40QGYYMcc6Tv4XgvsHpwQkDZ11jwxXuyT4DZ0hNMwX7ae1cIeouGuyCSbER9CCgEB41foBdml4vl/7hUpC5B3frb+1a9H1nWC/QOKksWa8hKwnnzX8XDszQDdwrzenDyHf1699XPEXBqzjdqHVV3wnBpAxaUd38ScnESI4PwgIionn1HgzHJA+pHw7ap+cUuhhAevBt4MnBxIyJkLeRFrWug/rHh98I3C/eTBDVablLLX5oWEoz/cKfQsA3/0GGORjpu96RLDqe2/Qn3E9Ye/u3B+URHl8YPEPK3M7WZvpPFHoqif8bzL+x2DYDYUN2veW9Em6PvkagYfvEjEZVEjO36lar0SCQGXjWN85vvKfGVwcEAxOPi3wpFyX/kYBVBPQcpbnsR/7DJJ1zWRbdKLbxKpn0F7y+Jm3MMAnvi/0T1/xnRgQi0rGi9ixH/rUWeVWah+DaoI5JQLDBxmMPFf224Krg35ADBTB8pXASYNGO9HM9QusWTRDD/wbyx62fl6AT/iCT4OKgHliQUyITb/Awmpi6Z7GGH9rgSA3YRqUpL4SDALIgn7SwhpKVPa2wd7B/sEBwa6BxElHJ45wKoAfX1yV7Ht1wBqCyBj+qkzGCFv5j1SwHb/wEeL9T1+fiWct3ksyPis4O/hJgP+3BKORMaR1f/QSq1HjhfBopLJhMjixYbBJsGWwdUDCwXbBDsE2gc6n2xSQiVc/rTKXp//N4MjAU3ZM+icHfDDxJb0qkzbyXxi9rzOUZHwoeHiwW8e7PS18Y0CfQmAsIbMwuCK4Kri6w6K01wT8BOVP2cgNI/UPnK+bDRQI834BCeVdTLtVQKJJ+ObBfYP7BLWKM1yGuPowkv1E39lLM/cfwYcD/sByQnB8AOHonsGvA4oCfasiadsGMe7nAbGCuN7/OeDP1kcGzw/4G4NE8okPp5U+LfHxAKS7HHGIbgz4Q9e1AQVBYSwOrg6IIe2CYFJkQg/MaowaCxjNNc11dXPwx67/p7TD1mL0x4PHBd4A6TZXPe3nAteeCiOEXRTRqkbYZML4utfuL3eGVpvpHxKcHpA0ZfstsTOexJQ+MbZQ+vL9MbmDiNmEqTp0ZFajHIO4gjmBVCCgckF/8/6YivxZ8J/BawKM46RUIoDsq8EUxfmBup6UPrRW26xST206OFYZD/4AtHZnpb5ZJBq/XjrzglcHnw1Yc0Ogz8Na424eyAm58cCRM8h921HvSbBHI+ZJApscF7wxoPrguxYD6bM5Hy4YjzFcPWBxh1+l5bpifSWSzXr2QJcEH94mwfeCHYOrgv0CdOEY+6wKpC28Jr8b7BosCvbtWuczHCF4+IuPlYgFr9Utgq06bJN22+CeAa/buQEf2KyveWC8evCa4MSAGFqM6U6O2ACl0EkBm2C0ir2OaN8f4NhohC4MQ65e+4PWqGunTPK6YO+vFMGx1hfRGesaGzbgdsNGCn2PANKHdrT8Ex+QISZV1/KSbbLfmQnizz7GnlzII0cQuiyOhjGVR1V0chRZBJzAagh9vkr57b5WALGWPk6O5WBEliMD+IDM8LHDHqcUqcnoLMun1MU3Y/OO9LGNV90+AaTt7Wh8T/xhHTHTN4rjxQEfw+wBTD45MPnkRtIux1NuNQZFrws0hI8SDbLPmL9yHRFwbUkYxbjqcm60Vh38hFoQoP/EbgG6pt3ZTvdoDXt6Ax2XPjbxK+WBAaTN7WjsJ370Y4P+wwO+C9APiLHJr/F+XfjSROPrujFbDFL5M9O38nj/axQ8bwYMvjx4beDv33QboqrHc+114iM3yhZh/DBAN4GHJqKnXTG1J8n3dL88fWy5KNg2gLz92tHwJ3qMQ5XaOQM+Ci8J0A3qSSfWxBw+8SYXELmxKBvGTDw0Gt1cy1YnRvkFqmF1TLWeETw32CyohNEEdCzjDTqOfiRgHwIFEcix1jeCU3ywt3aY/M+G54m3HbbNMF/52D0i+O/g1gDfQE08Y2LqYSP25ADCf3KzwkhHCQgfJhpMov1A1AF4ztPyLvt08LSAL+dKOEKAhznDvHR0Oug7oWOwZiaLAF8B9KqAvV/KoCMLw7EtdjFXbWfuPsGTg08EvD5qjIhZvUmJaY0jMdcWcxHWiqXq8COzNe99nahFAO+m4A9lXrlrwvtYQCAISCUCBnTUOZJsMHdK/0fBCU6mHVY8RWTC3arzX7L6p4GnD3v6hYfN2p/uCK2f3qHB6cGiwDjY/jG8G3v8GktiTKylmgN5K7TFUY0gCK8P+KsVDnFVWbWfS3/r4HnBFwO/6HWcdnFwavDEYIOgEsFkn5qI+q49JnPPqgtmqP+M6KUApGoDtmEjtlZaL4PHBR8Irgqqz/SvC74cvCggRh8J4BM7r3ti+vrAQmMfYr/KkH/xwqDzAxzgCvNj5YPpV9o0A04Cv5377znWLggoBgK3blCpFgJ9abt0Nu4GtVCcn2yrrg2jYIeixKvXxCuHCPE4JPiP4KoAnyrwmYPwlGDzoNK/ZYAsBYAcfWIq1VjLW+mtwdgjlnjVY7wfgm/pLESOKrZ6d09fJ3+c/gVBDRT9y4N3BfsFlTwF6PJkMF8TUeWn0q86tZ99awGi/6+DtwWXBX0//ie8k4Prurl90kLoRqe3yevSZy1xMTbElNhCxrodrSJPjeIniY7/JX3A+EUB5PVoFT8qPJ08tpFoT/370786UJft/PCOCuqtYCEQyJqoDKeV1N9P/L2yyxHBWYFXtvZeEd57gwMDff9l+sw/OoCMhfNHhsc8uowNY2ILGet2tAo8CYwn+pT0MZaTb/KrsxpvtVMAfuS8Lv1KfDA9Lfh8wMcResSV6fMu3iiQKISZLAD2qSee75RXBJcF2kXLr5yPB3zL1ELNsDnl2I4crwjIWBibueExD4ihtyixhYj1TPvZbDTeh5W7ThZcGGB4fX/dkPEOAaSTOn1QeJ6a1yMQQg9XYqWdMzg++EVgcGgXB8cF9aNxzYynM0DoQqdEUvnovDqotpyT8QuCLYNKxMcY0XIrsO4xAWQs3GOr8H4VIMMNQCzpE1tiA6mvHa3kp8bsGzsMSK3c74VvQpTV6QMz5w1wQueHRUKl06eVGD81+FbgXrQLgpcFylJA/SIKa8LU1/PCaLgycG9O58eDhweVWFcLUf/hXRWwvn8DVHv1r3+TEmPIOLajlfjEMYP+2vRxjIq9I/AVwEcRhNEGwgKYGx5VzroTA8gCaEftGtb2nT4gPF4PrBWcEk9WusvpgjdeqnYcmEU/CtyH9hPBXkElEgz6VP1emEnWH9QJGQuGrn1D+sgQQ2LpLUCMIWKuzoaxsh4mn+QYoNvSx2iDRfCg6qj9h4WPPLInBVANfMtZ+sRpguS+zPxNcEbgfrQfDzYPIE5WPV0Nc5QHshbbfdM/Lai6z874EYGkPdi2baBvNUH2ucKvDdA3N4CUr318Moa0xogYa1uNAWtXChnYedkdp7jOgaefE6mMbVgjTu+dPn/kYO07A2i0Amgl2ieBrzqflHH9ayQfY89qRZsn8mNRlXl6hE0W9i0OjiwK2JtkmNwd0j8gkOQzNll82P42QN/DAqgWQPXn/MwhRyyNK2NiDVXZlrMSnjr5leyNcV5VFsBxnU3VSVgm+QHp3xSwlp9+kHPtaPQn+5MEA8zaNwXuj95PBgQeqgluOUufzvGz7PSAteLU9DcMIPZEVt/hQf8Q7Nb0lt9H+zbOPL/p0fvgTrYfm3t1/Jd3ciQfeWNLrKH+/i13BT5N1JHZEwN9l3t14eg2nT1eW91wJMk7h+GJ+HA3aSKUtcXheuLk29Z1DwnTVxK2XRHs1wn2k4de1+6T/mUBa8CvA37OSfrs2FN4QBjv7Zjw+slRjl8IfNgB/7DTLwBlN4nMDQF2GFNjTMyhvj0tdwU8Ddj22csr3ErFOYz+UGeHst2waTR8u4yuC5D/VAD1iwVeP6CDdCLHSVM3Y74r0G0QnwMzZJLQ636Hp19vjq9nvFkAsZ+JaRi9x7kZP7Pjqa+KuHaHMLGFmO3SCVR7O9ZIQf5bGMgbU2PMemIPDYtFOzsDz+rg/OjHQCvTSoW3e7e3znfDptHoLTO6JkD+i83M8oF2/XaZf3wnQ4MOr9bCbrrqZ3BQsChgD/CPAYQfyvHzznnaEwJpUIKYk//KvDO4KaT72CmtMePUo/93gQlUTxEf8YuC8eo3+cZ6flmg/sKamS4Bd7N3pY8zGGTib+1470sLmbx2tPRp4PnKvjpAz5ndNKcSSAZolzD4Gj43eKCTaZmv8k7Bcx9O8tkB+wDe19LR6cjnyn2sE2mH2d/YtFFecdvPuceS7Vdv/ki1Vzb7Wda8oltf/dCOfTPHXhTMVp2c/nXDkca93xoOa4wtsbYIyAFETsjNjBIOaezz08coqtLKtFKvD8+rc5hRFtF6kb00QNd5gVQTavD4CPtlgCygyOBBBMuANYzyqO/YT4bv+kPTP7iML0p/hwBiz2G2GwP+zvvNyKHvop3WWF293CZQtUcfHh0+cgsC3vGQc+1o6dP98XFRwDpjXONOLiDsqnFrmNP1qMl/QpTqrJWIQb4//67b1CQPssE5jL4wQB+tTtuGNXLjIPvjAFnfiZykwwNpWDBHkhbBDwTouCXgQ5X+WcG9A6gWTMtpnzUGq228evO/71/ywk3X+ct5D956yRvut0FzEJ6wwRoHdYtqAbj/YZljv0sCih8yFu1o2adzTwqbdTXOxh4+OYHYZ9qLgGQY2EPSZ0NgEriS/EPFKelDGFGT2DDLowbH37uc7nU6mTpf+7wm3NvTwPgzwQbdWmwdFAR9QKzeBPys0lYThUylkbUHr7PaFvuvPYf9lvzTFve+/ab9d7rjxv13vPUJ698TOxa8fsv1eK1BJo++el+SPnIXFF6VC3sZqnF8e2ZYi9++cs0BfHIDYav+NIypPKpxz4giNgK1+kz+t8tGdV1hj3SrgWeFi85FgVd6XY+sCW0Cn7H709pfnP7cQHKNY1pPN8VyU/CbwJPv7++wlqFqKwn01vjzSdtteMef5+2y5MwHbtkU40PXXP3kbmW1GZYFcEL6+PpdmB3VApdX2zpPsbK+Fr/+wydHUo2hvHG3BE+jWfTGgA2AG9aTT0XnldjQyGnpxoOaWtlfiAB6+QDbuhOuOpDVmfekjyyV31y53bgG5NjwpH4RmEz0XxMsCAywc66lbXgPWrP5v5Q999Vbrbfkh/tss+T0Xe/7p7dut+GSBftuvyQ3wG2HbbgWNv32yI3W3oZF+yy9MRlC+vOB9JH9GsyOBu3rnK3ryQnfSujg4HkTmBP45EpCvh8D54a2bOaindM/O0Bxff+wsUH/Ufr1+s1wTKpJPT3S6OedfP9uZS0+WI6PTx9ZwDcHNhiEeh36x5v+qTbYFNTC4NrAW8FCCKuhJuiPXm+tXTO6+aWbrbPkd4/Y6X9vnrvTX/44d6clnPyb5+5820nb3aex56H3mvMcVj1gqa2Nku7hvp7gT3d89jTWVX5Q3yLgNTk/YN96EIiHh4KckTsI/a5tGD40yrGCVtPLMsGX8SMCNoIwmI3YnKR8Kdg34DplE9aOh1jv/px8iET4G7ofFMeLG8n26sYWK5x90Ydt0KZt0zyxi4Qzrx4CxRrH6TZ9ZJBdIz9jmqJb9x5Nga2x4T3XWG2dOfeYc8eS1ebcvmS1P1/w+1tuP+bixWsde9WNq+295pyjvn/b7ac+NfH5+fIxQCdFyl5bBdBv26axiViMh7AXXzgo5OSz3Ri9+G0BkyvmyR05RL9rq79hLyUUS7unc3bAQuDJwgnf9/DrVUPQJkqevGOy0L0O7ZT0T66y8zrZ56Q9KPhmYEGig8TSfirwp2i6A+nScPkG6O9VhVd/4Jpzjgzjtlfm+r/yYdvd/uU9Nr/jmC3urb3fOHTde+7ZLSDRgwJsbDbPPPux9nUBpF/taHxP9SF9XKAt9ZVgzpgjl+RUqrluKrAyUGgQUWKfIKv0uvQfE0A4bOU1jAk8DPzhWaMTL+7WO6c6XwHbd7InOpF21+A1gT8R1UX7/eDNAT+Tdgs2DrT3Z+lfHxhQfpfvHMwL+Nj7ZLAwwo0+fudvsPo9fN18fu81lvngrDHMsmXIJO8XrrYd1Un0/Vxm4SgDfKDgoEcFiwN0c9I9EOTOnNEntxL2ur7hYVwNoAtR6rue/ucDf+YspyRzE6FBgXlHp8CEq88ksYZXxje7iX7g9w7/lcFXg18HBtwWX64Mzg1+H+Dn/OCSgNeYcsu02fwXmbuW+T3WWP1NaaXVD1haQPL6rUl+QSbUe2AnZAz6a8Yz5vAZpw3S57tC/TVnNZc/iQy5HqEN03tnUBfWU09FMfeH4LmB1A+8/Im0JnXLLOIkss8ZRUGtUJx1TPJIrmP0DLKH74kHB38X/P+AD7DLA33SZ1uu0AUBBXF68C9BXuvNrbB1jtzvky0KRRpP8rBbPz+YPntReDsE0CC725nxP6uOZ2bZ7wL2wU99Jae1KMg5uV/trKAvzNgioP+FYOsAIug61DCm8CA40g/SYa+rAq5pqDrG2IC/PX1kd4IZ0h70sQZU3RmOEPZTGHsFvMrAQ4Idg80D90h3GTo+oyXZaN+O68lbRmjAQNtSPyP/q2Y+zhhD2DMdhD514sdnA2IEai5rUZyVueZDSiEFbS/L/GEIdYTTwwKrzERbk/zvWagdB3ZK+slwfGgn+6whcrCx06CQBECwa8AXZgz6xFrk1u4mKBhi8t5urM3dcNRGm/lQ9BXz0W6FxTGqgglMYnctzCdnfHFgXG3N70HqPqET4gpEyI+I09KHCOREnG4WjfOhwU+PPHuDE7u1BKgWHHZAfIPwMfZfDEITCaQ6SMyiDiapr8d395s7OYun2pSpgYQsMVunmz06rf4d2fH0vRtOW8O+AHpfUHNqjsn5MjQ/IwQRILh+7b4sfQiF43G8EZ7Aw6BunjX+RDovfZNhq0rHXwqD62zY60L5fut+6FnUQZ3Oscbk8MuAm/ARMEPKtqNln6wnToNkvhg+8eVbatsAqvu1nOl5mvyjo449Afk0+fPTH8mlju4e5s0BwvU9wdivRmXDmlYyEJ+MVvbjY8WA64wbGtzHdrI4Ca0bcLrRNeJc+n1yL/Qs6qBO51ivjlenz9c7hH74yNEHrAXKp9sQt8r+AR+flwbEFN/+O4Dcqx1N39Mc7R2Vfwr6+STH5BpSduTD5/lhssB3hBWzIDxPGk5PN6nTpGLDe7pNajL6+2IXp3PEkU7ApPTlGRt4ZBZ1oA85Z7tleE9sZtpkk1Rt7djLNHwoPyU4JbgkwA9hMp4aHjSanlZi4k91rpelxIW9zaE5JccQvowQDrv4M+mzUINv7cZfSyv1q13+ZFv1kYgfBux/TbBVAJmQdrTU1heFgSzO8svggICbQFKvY1p1jVYAyq+TziAdzHMgHhI8O3hXcG7AzzvsEfzJFn/+2PEoCr8rhumNyKSo6vt8NGCDuTOX5BYi18ahYfDwFKyf/oIABX/uWq5kxm8NoP613HKn9rQAnxc1BvC4TqVz7qDx9w6D5CtPe1Xw0WBeABGYGhzXjlUAdc3O0cEX9auCjwTfD64N6r72+Q3+jeDYYPPgjYFzL08f6vvTcqf2NCf/GjXsZ87MITklt5C5bkfl6VU6NzyN9mPQK4Q/NEDLXCEta0pPg8L19fOA/RcHfPFDNSGMlX92+sjybvPXC+P5gaQs4/EWQF1zZtYZj37LTcUfmF4bHBJsFUibpsNHH2suD2bqNWouKFL2Mme28OYGkDluRwOeVtJrMsdCK8ngUlH7dOvcuBtOubEyXxJN7A3e0mnVrm44UgCMzwiQ5crz2vtW+lJN5mQK4OwoUj+FRv/iYP/AU5XuCGnraeEgC7gRIHzsF3MzMcmHOdg9628J2MtcmTtyCWlXOxryrMZ9NTIoNKi+S64Kz5M5ZkVFdrxkAaDzJ4F7379T0HfAvXfM/I2dvEGY362hmUwBaAsFc16ALX5Q0ee0S8hgG/uYkL9O31uTYuF1Bam3HU3tqf8U4SUBdpkjc0YOpZpbeQNbjdwss4sDFFtNBuGs8KQaYHmTbQ3gE6KAfQEnHCLQfSeUf3rmagDOz1i79Cescb8CXEOQfxyg29N/SvoQH3TKMcY27eMG0v7DmAxpazua2lPf0EKS2cvcmCtyRw6hamfLGeNpdT0ycjri1eJGH+p04DTJmQ5Cl8Z+LH33fn6nnKD3idMHvTlQnhtEH9SHjHbCW9TBeeeQk8cvAb9J0H1xYCKVCashbXtuRtrxX90cCbM4Otakmxrvd0cLe5kTcwRvXreDceiG42vYxIV8vaIQ5XxYAK+a49OH+sFouZN7qmujLF8UsDdf17sEkAloR8sGlp86yP8o8Ceh+pA3yfDQDZx3LqyR9+V90r8oQOcNwa4BZNG1o6Wx2jwMb83fpL9FJ9CXd91kWnW9Iouxi+8y82IBvKxTTA4nXXgExKvmlPTZzMTzfvMd9+z0IQumHU3tqa76KvhOUaldshzj7GXBdYGFYoKRNcnwSD5w3rmwRhK8fvrowvc9A8gEtKNWp0H+WJjIAl5LkL60o6k91fW0qGEPEm8ezA25gohJ9alhTvRhYFn3lYBNfcdYbfAODiCD3o6m9jQxb48a9gAndSqxy6B3rJHE7BTGmYE/yWrCDAi6F3VwH+fCHknadulfGDw8gExAO2qf6j8iQ+18fydQ41fXTKZvbPcv+5gDc0KOpGnbW0UEir9s4eStXcv1w5h3kD8PfReGNSWqCTknmgyuJ8vA101cs2mYG3QT8hjaH6sAlNska7YdoKdjjRQdv1R4TWHj+YG2qSesKZEx3T1a/hCwj7E3F+TGYjZnYU0PqXjjqLs8wACSTmv1cVXuEECDTko7M7Gn+26bZdcG7MefVvcKIAPdjtpnDXr/lnCOdYuDRYF7ONdqWfaGGRRQeSTnggDbrg92DaBBtrUzE3saS2407K0xNwfkhNxA+tOOpvGpISSZZGOIBtheER6nD1K+HU3+qZ5HRYXvuyvTH+1vESSzn3wsMMnjKQDk0eEaxpLJZ8x/MUUswOMCSJvb0eSfFhEfoxcHg2I+EwdvqMW+hx4UCU4iBvnxYRH8LDz+pAvpQDua/NOAHh0VBvsH6cu3HWsHkzneAhikDx0WwHvT155p+fIuG3qSiTm+1uQbc3JALiBz045m8On7iI8RvkIxzPeRRXB+eCZFR8KaNHESLaYT0jfofOxJzjse1Jo4ZK8JuFK1z+IYtE4eMsofn752vLUTYG48ejrxoY174Pd3gpp8Y03syQFkTtrRCnhabY/NXgah/0V6TuYMuMUwGdMMKMEA0PsC9/1yw2kfY+1T7ZloAdTkv7Tsf2rZX1tty9S4u7WQv97t43eWMcZ3Yg+Zi3a0Ap8aelj2NBkaqMHfzpzBGCs5g0yvCasFgOxHAvc9I3330S5k+lT1/SqTCwNPm+v7axgz59oXp+++n2ayI9ebEOWdH09bbf9qFrCPsTS28Ig5VOVbzgp+asBR2degaKivg29nziBPpAjUPS/rD+78Qk8N7Ccydt9z0l+3kxu2j2uZpwAWBdpmAjsVI41rYBwTuN9nRyRam9TzyPD/tpuTV0SHdvUXgdGSf1SnocoPVTrTE5xKnfRa5Eu9XwTnhud7alhyqq3KkPyfB/xZGHIvW3gfDkzKRenfD2aIk4h9lUwmc9cGiwJ1DSoA7UBH/YPUx2F05Hp1rxM+fzzyiq46XNNvlUHHmQH+eICIpb9+iDHEnn3fmomV8SBwOv/K9DEegzVaR/hDhX+c0eGwliOSA/EfNqLr3xmE5LejpYlj/I7AIvh1+n4cYZsJSnfETgtgYZmvBUBw3Y9b5YuB+vn+kKpueBb529JHfl+YIXW1o2WfnuS1w54fsM6Y1TgSW4hYV1sb5sp+1CJ4bYzBiWq8Dv0i/C06YwcVgYHaIzI3BejZr5M3UN2waSw8BvV6Zm/GknspT6IolEEFUE/XPpG5OMAO8JpA6icfvjZavLeGhw5I39pR+9Qubjj/mGSsavyIKbRKJr81ra1KK/OEMAlYvb78mFkU/i7dohoUg7Fl5hYErL8kkD/symNP931i+v59gvVnBNsEUD3VFAB/QKkFwD41qcdmbDJuSf+wAEKP+zWM8tBG2p8G2MCrZvsA0hf6+r5d+lcEyBojkk/s4J0QQNXPlrMKPquRb4x9ODCoCG4M/2Gd/TXwVPh5AevAiQFksNrR8k8C7unbLX1PEzrY63mBhCzvaW8A1tWE/lXG5wbawB+29gogCoT1o5G2vjpC6qAYKDoIHRbCg9L/TYCcxVaTTwyhGteWswo/MdYgvSF9nKMIrGirnPHjA4jEQ6cFyP+ha+v71gRnaigZWPS9JzABtPymNpHI8Xf7RYF7b5L+OwMS4LpT0lenbVhDieRKJ6dTfflMN2GxHZSxSbetcSJ2ELF0TcO4MzxqERwfgwnEHYF/xfpTx4P/ggD654CxcyaCwFlQnq6whlItlEMi5fWKbvZ/fUCyrw2uCrgNXhwwRgZcHlic6Y7cLvSHUbXtIxFCjz5Y9L7Lj+jmkXEO25Q/Pn3oTpn81vT2ZHm6/ilMnAWDiuCj4fOeZd4gUDDeGvyC2CKAxnMSKUBPI1/XnEZPGXtcGvCtwOvhgkDbkEGWL38IHfrQMIY8TP7GmZ8foA/b8aH6RHFbHPAtdmMCj1hB7DuevRvhVfVRE3FEjMTB6jjJNkjwTb5yzJm469LfL4BIDLrHonob7BFhbhN199tPZu4BRWFdW9jLdLFBOb72FwfoxebqF7w6pm9xWwTIHBFA4/WvlV7Fn1xjnsa/Td+EevXhOEGoAYJXUWWfkzlJvY4HtTVJzD80+ETAqcOW0wM+/CQSOp7iqnsfnjXaX22tPtBHpiZcWewgNhB6feU1jLvKw6ubk7goICAWQz9Qg8Y1cPzhR1Kv42Etga1X6u4Z71KEmatJLVPLdT31TLw50N5qo7xhrb4TC2ICjdeXVvpO+NRB3pXfDQgOQfM6HBYs+bwilP1W+vcNIPSO59Qi2090vzCQGUacTH3gr5pfCbCt2qWtw1rst1CIAbGA1NuO7sLP6uhp8ZNAcTXWD6FhwVPWq5Pf8vMCiAIY7wlGnkKoNwK80ajK7xfBhQH2YIvX/2h2M4ePyp6WvlRjIu8u3dYr9Nh4auA8GY5Ha71CkXlViVbVXdhT6ladL48m7ao2yBvWVt/wWaq65d0tWk6s1/Zj0udnGcGbSFDrrcE/2KwfQOptR1N7qoufk/VXRN17WNLl6xM+4itU/W85d8Mn71RPwI7pXxQQNE5L/yehwey3yHm6rk7/rwJoItd7u2L5pzr2zNRlAXuT+MnYhm/4COEzvs9SFwHfgQTmU4FJHu8p4716c1n3tPQhi6sdTezpWv4iqD2cYN/h8oa11XZ8Up++Tsyau4G0AcJV/inXwPrB53hQW4PN3/O3REnI67sdTezp2k2z7KTAfdlrrCKoNuOLVH2UN9uWCHDleu0+Kv0bAgI/7Eu7JuInkds3kEyg48m0VQd/6ft+YCEMeg1gj8nHdnyAql8tZ/Y5NAL1u2CLSJ0TEHR+P/s3AMY1AXyZS5yymjj5k23RVU/uCzLWjmpDtQ+bsR1i7ez7vgnFxB71XVn/ky+/qDlt3gDvSZ9TBk13wEleteVtGVOAdX9tgj+Zv1Jm2SwNikA9eXzY3RIQ5BpwT+El4fvv/SRtIn8UivhAoqi8TXZN/8JgWPKxDRularu82XYSEahX8I5Z/8OAJJB4P/5873Iq/yGQOLkmUB6tBUKRDLqe+6f+6Mj5U9O92NviwyZsg0j8oD2bydnH5CNQr+G3Rw1FAGpC5J0R/g6BVNeSoH7S62mtsttE9guBevsFBx9bpLpW3mw7jRGoiTo4ehcGJMEPME6kJ5XXxLGBxGmvCTo84yOcTIvu+trgw5Lf/ehHJ7rdBx57Y4NUbZM3285ABOorYb3oPzUgIYDbgNeARQCP/yDzwEDaM50vB675RvoPdjLt/oGvGWRMvjcNPPZkb4jEz175TShW7KOe5idk68UByfGk9gvhg5mr/3bPdV4L5eSM3x9YGMyhg1OPTvjswV5StUHebLsCIzAne3ltD7sNSDSJNLG0JrdfJMq4pp76D2Wdp5492XuWVpEI1Pcv/9p2ZUAyObkm2xPfLwbk4DFv4lnjqUeX/4KXbnPl087SKhaBehvwT7fvDkgu8NvA8bCWQqinHh3ogmZPfRuHVf5Z38v7x9qfBSack22/39Y51rBWqjrlzbarcATqLwV+8/9rYMJJNB92junX5CPr3wlmv/ATjDsz1W+DveLIOYGJJ+k18cwhI9W18mbbO2EE6m2A+S8J/hBYCPThSbOn3kjcxVo+4rzat0j/qx3oQ8z5k7Jh3NUf/werROThKFfIMwAAAABJRU5ErkJggg==;imageBorder=#000000;" vertex="1" parent="1">
          <mxGeometry x="70" y="210" width="30" height="30" as="geometry" />
        </mxCell>
        <mxCell id="nS4Bwxo-vKO3iZAZe_Ir-7" value="" style="shape=image;verticalLabelPosition=bottom;labelBackgroundColor=#ffffff;verticalAlign=top;aspect=fixed;imageAspect=0;image=data:image/png,iVBORw0KGgoAAAANSUhEUgAAAIAAAACACAYAAADDPmHLAAAAAXNSR0IArs4c6QAAAIRlWElmTU0AKgAAAAgABQESAAMAAAABAAEAAAEaAAUAAAABAAAASgEbAAUAAAABAAAAUgEoAAMAAAABAAIAAIdpAAQAAAABAAAAWgAAAAAAAABIAAAAAQAAAEgAAAABAAOgAQADAAAAAQABAACgAgAEAAAAAQAAAICgAwAEAAAAAQAAAIAAAAAAu7RpdAAAAAlwSFlzAAALEwAACxMBAJqcGAAAAVlpVFh0WE1MOmNvbS5hZG9iZS54bXAAAAAAADx4OnhtcG1ldGEgeG1sbnM6eD0iYWRvYmU6bnM6bWV0YS8iIHg6eG1wdGs9IlhNUCBDb3JlIDYuMC4wIj4KICAgPHJkZjpSREYgeG1sbnM6cmRmPSJodHRwOi8vd3d3LnczLm9yZy8xOTk5LzAyLzIyLXJkZi1zeW50YXgtbnMjIj4KICAgICAgPHJkZjpEZXNjcmlwdGlvbiByZGY6YWJvdXQ9IiIKICAgICAgICAgICAgeG1sbnM6dGlmZj0iaHR0cDovL25zLmFkb2JlLmNvbS90aWZmLzEuMC8iPgogICAgICAgICA8dGlmZjpPcmllbnRhdGlvbj4xPC90aWZmOk9yaWVudGF0aW9uPgogICAgICA8L3JkZjpEZXNjcmlwdGlvbj4KICAgPC9yZGY6UkRGPgo8L3g6eG1wbWV0YT4KGV7hBwAAJRxJREFUeAHdnQmYZFV1x++r7p4ZQBBEBHFLUBkjmCCoKEYdVDQYUb4gq/rJZ9TvSyIaNYmKiTa4b4kJSESjjgaGgZFFUcEg0AYRkLAqqCCIIgiKsg4zvdXL73/OvVXVS3VXvfeqq3pufa/edpdzz3bPPXd5WehzyEdDLYxx7B6ycG+oZxvC9EIg5WvCcHhs2J7/bcMURxYeQ/ydQx524fxouw5hO86rOB7FsR3vtua8griP4/pL2frw13ngbtSOXOdsNNTzo8KJvD+auHdyTHG9kRj3cv0Qxzj3v+f8O457eH4X978F2t+HEeI9HO4P54T7s8DTBYLBr7reRLw11JdyF4je81fDPS8hFtBAuIitsFPIReyIgDpM0Aj5oWErYu3KsRto+mPQJeLuxvEkDhH70ZDnEZxXhSHeKkcwb6EV/bpOh9C8kmPcmMGfHxff66xQDztQ8jbEeeqMPFPe6exxFV/lTnGeIN194chwD8XdzdPbeH4bz+/muJW8fgGkd2Vrw+ZsjPhjyoAwZv/BmMIvg5gChswpqrUm6W3l554yQEO6AdsqTsW4bHA8N1k4AqLWwhN5syfH3rx/GscuvNkV4ooRFMtDSq2zDoVp8tOR7lNcf6u79GSaOCPcT9mr4+JzvR21J4o5SV7Ke4KzcJNyTWd/4jnqX9AN8z9M2q0572q5phKVSvnV0SDj4Tf5kaY1fsKTazhuIP6vsnXhl4YbHlgYsyIycDdsDAJD9FJLVMoArQQPFyPdmRG7SfBDUckZhB4KzwW1e3L9p5yfasgTJEKcYgtxOotk0/avd3qqGLMPEaFmT7lYICQ40jlA+CZhPWE95uN5zpdZIm7zXW656N/ZUHnqLrOfw/YIIFQ9pVleYPGdMTbCFDcT/zqe/Zj3l8OeN6IZ/wBszqhjZDZKqjEOhYoZojQDGHB3QtJdW9S5AAVR+WvD4yHfn3G3H/cv4KzWb2eTQ8VxIuvsPydxQnEitKSryuCIbc3xhkYJc9+1xpv/OkGXzh6reeesIWZWcNbQlRqvbfjfC9LupQfoH+mTu2CKm7i6hPc/4P46NMAd3DvjjkWGmIlzXhcLXTMAtcjgwiErbmwm0fOjMc7GTY0fQEWfC8h7Q+ztjHcFfjomjLuFkCRpfm4irVht2qdy5Ot9HiXLid583vrO89G7KiBSHs18mlfODLIgHDN6o+Zkl3i80N5MhvthiKt5dznCdAENzTUwxH0xjbhqJj2UaxehIwawQg4FrB1CLfs8fCpDJob8dWE1d/tzewDE38+AV64CQ7GmTIW7QnREeEV51acwMafc3zUIJBlUaCWTP+nNv8qRMLlACWtqRqQPhT9vRB4JW+zP9f7g8r1hs2mIS3l7AbEuzk5HW7TS4y2IHL2psAHboQNmaMsARvQo6WakePdsOl8DOLsi2fXwCoB6GUDtjXW90gD2dk0mlEivVltqTscgBIciAzqFJtGbsMkI7G8QjDqaNo1YIZmm0hBDaIihcAixDkHgxtEOVxH/O9yfT7yrTEBjHYxWupambsMMcxggtemtkm7Pbg7Pg+ivApxXkOWekNwVl4g+YYhzwL0CIzz1K7sYqD9BHGjGGt2wlmtvZ/V+UIK0gAjvwbVD0hA1qDBkWnc/KHAcsX4EQ3yLqN8Ip4XLW3sXuTRD006L2cWMjcDeHqcuhyECI+7ZEPzg8DOOLDwdV4p3a5zoqRmQ+nKCN7Id6AuH+06cP1Eqcq4NYsnaYAfBqcM1hAxKNbEepB2eYcdkeA8+iR/jTDgHof06jq//S5phNq2HcboMYVQoEyf6UeZ8OYys/4rj2UZavZUV66o9GW6JK2P5A39KHclNBum9kei6aV5vopYKzhB2OdB/gjPRQV1m94no2TBausYxEf4ZrXAF8c6kbhug9W1cO63XhOFheeOQdLlLD+I4kuMlSPoqiyJZGYfHXA0tN0kH+HlCPTgDzPOKerZ/N1/8wXomZmgalE3jW8ywL8ywL8xwHMwg4/E0jm9C+4eG8yPCx+CcNyDp8r655e5teuqaJQ4brOp2A02yqP38oCV9qEXK03UWHkQAFJK2sJtl+peMbzUTkng5ubaCGWTHvYrG7g6Y4asi8grcEbsQaRMPk1NVbbq4abmoQkBdICRyirg5RFZ4iv37X7rWu8QAnqYl0rK9TJphhLrVjcai9TY2MLZ9DeX/bkayboYztqKK4pItg+iz6aVatWqA2e91n4cHYpz53m4JzyTwdUR7K2j+S8T9Xe7YCeF42giFhCa72eL+pAgzhm1nh583HjwAerbk4PpNuj0PH8QG2GRkz04Lp2AgfI/GYJgXcz1lWwpKvDV82KrTJHpr7WQETkYd6Mhqfbv8ryeg8QgUvowx1y+rOjVzEOgKjqDq6mHKxZP6lnqzJQS5oiX9mtSx0Sqk2QQppOtpsw/G0+Mt7CyarsTWEx4+RHewLtprBHs6Bz04Cy7k1bro0tnyFKFbNprh403ADi0M0LzWO8XZEkMd6Zdon8UchG9bBaF9TZwQDotknw4fQj1sRAuoF7BlaQG3bh6gZs4AmpKVQvNa7+7fAhmgbjSdgLo1ND0hPzCsFO3dBtgQJvAIrmBk6Se8+yyWwJYa7s3+OzYBTElrVDJeyyji6R8az7ecizzS9GSk/1qj9Xk0hwS3/b2iLvFT4SPwiaYbyFbccpoCV+ua4CnKZ2GPFgZg6DT6yPW66RjW3fIPkv4haHoP7b9JPyOhDbo2GMBcwtICG1CBMgi9q9CIuPzxQA2yKN0a5h5tMgC8IW2QcHHPFlHXZiV8dmMWPgJtf2fS3zJ/IFXaohPBuoAYhJ/j6hrrFvpEpWZ2y/VKGiALvzbwd2JiixO9WZsrjOV1f3t86DqjGWP5XanbO4zVM07TPhn+wyqwwfp6jbrMYAA91ehgfHtslBHFabaX8eUyO7ljNw+/Mri3aUh7sxo7N0y/xADNd8vzKnV9xfjHmoZn9G82489hAE0lUn1xDp0P/5xtUw40Jti/IOYry4DJs685+4HlJHPzS8+04MMbvrm4scTL5m/cNPhkOB9anmNQj83t2c2ppDgkh1MswRQu4s2wQWarbORC6FUQQYR2GaJakaOydOheoxNSx3OJxsMOgtJlseou3VrTMzukZ3W0hOY+eAMwN97sdO3uPb3eKreZddJEjt6GaeBfZQ261j0RRFPRdnaxcxjAIsApsopRG9dyf5I5EKrtEQgQEVe+R2csre9Rz2ME5lvJIbe05rg4AjdzbqKUm66CaqmBnlps31us4EY+6VnNpmCX7wnkpjXV/Rqy+qhOqptq6QzdWv+qje3pSLMvYM9dAbI1c3jeMlzSG1jwC3EK06T0TjNMPkFVDgNsDRlLG8ybZlYWrbcitgp3vhehE7GFDAWX9YeJIem7iSe/4JC03sKza4n/ESp0JBwtI1X+rG6CpFnMcy+ptbYvGDLG7Kr5JwTp2RTxhqwrqHWFgr1bxpO/fQVlnUeO74bFn0mNn0xOT+RYTW6rOe8CMwwZMwgzfvh8YC9N/2LbbssmCTUYovxxejwZcz0UDg0jOH3mHeNZsADzFuEwYOLAPwLwJ6iMQFWaBdPxXogTh+ssrtfcYE+lp9M2r/3nPJXj6YeAfD2xfk3+v049EZ43AuX/L1V6AVWQxpCXspugbtAQZVxBW/hcJQSoxnzA1ozScybJeHk+G9eZtDXiwteTQDgCpI3yWqNjZD8KfDyBYzXP9+N4Jsfu3O9iopUw5xPDJRrCdcIelwsGpa5Tuvr9o0j/cdbti727+VIuLM2bjIgymj7DMMnRAPh0ECkSzkaKF+yrXiRvQ8T1FT0imRZJTrO4IQ+X8uYaztcC3J3zAaSmB0m01cKayEgFHkm8J0dIJBXdhpzcRPVblJD8h5EGb3Zm5/QWYKZM4BdzvsBSzY6z+P2QwZqH3WDcR8N094gIJJu2ufpa9hXsuI7zGcqOVck7gKNnYm/tA6x/DqzP4SwtoUkcriE14y/ht7120Fj/EDW4hZSfUt6tTh+7n/W3IANoWnF+DD7jE9ACR4VR0grgJP0CTYcYQjImleZhkvZ2IlzJzfc5LiTGDUj2HBcriBmy+fnJLXsGaMBep4CpfCfeKaxAddY1ZGV3qQS76ehPECpkTIBQ0JLMdiG1/FnsLiptqm27NHOf14BXJNqJ/ydxyLE0bd0wcjMG16qktC5hjHfraHJCuCgenzSGmELYND8zC8/n/BwwvL1BLjw4LiRagq5VO/hK6SlG+3B5J9oRp21YkAGUyoiPVCI1G+Doi+CsF8NhMso0J12teM3kadpmmFzI8+8A8GVI+O1KnwK41Hr8IWtnaW/Jb+5eAK3IZhUSabU0dLXJTzF17ChyIG62U3PkL4HWPKd3dVu9r7StEDXjLX4lB8wweNFK56u0ooqzL84YNaGZkYMxhbTeGnss3IghLo2HfDPa1+A53L8YiF7CWThp1Q5iuQlKlOV/Obhfy30IJ3C3SFiUASy9gJMirzPfvE6brVnDbrj9FAKdz7tzWQB9eXYuE41isEpJDm4AdPndqTgVc9U7lmJ1cM5YOCkyuPrrIMGcKGr/FX5q/82RP7ud8dd8d1NM41poRqQObpLmyK19P3WxFOBFBDQjVIJiuJOW2MNqLoa4g/dn68jXQOZdbbr3Ady/mOP5PNFGGdoQQ0z7Hp3Io31TpwgxdMQA1hS4FrgSA+njgKp18Cdhyl2TxVEl5WcqvQm0V0ovNuivy6D1bQo5q4sTQrvMwlJLijUVfMqQGJCyGZtRzMiy+e5OynyQlHIPCQ4JQOdBZQrmnIUaCqkudrPwH7xuwmKxIt5ahYmmROys7rmOT4Jz9S724fpoSv0lNsf3xEQwjbM9LxYKXak4y1gAtgSbUaQK0n5jWs941xKtq0tVmArU1Quh5buRhmM3NE33hMCWQDqkim+ClHuaUSnkzKrDbOBUTzqdPyLlHqQVIjsSlJZ8ZIzVgPl2Uv6JtcexTi1xCl0abHGhriwj4alQRjFRVxUT4hoAyIiRASOrWaErVoqltztpMDpQse1slZKMQIUiJWgoVOS+xYjfAREazBdsa5c9SF0Ewb41RqDtnrAJ6NfZAHuxvFT3RjDmjQt19dC0Q9wrwJrZRZi7kVG86IoBlKYFgNl5VXe/MqpcbZzgEizNUoQBkkvX23+1q4uFZhxdHUR0ld1tkC6UF1BaQP3869Bl3TUjHZYYNYAxqQlnh+lStJ4AlTIvfE5++RCeFdFWRApVfM3Il0GA7sP1kfRFceTap27tc7DdgbqHoasUJpxdpRCCBiyYCm56rp4VidA9lJJAtd1qwXPbhyfMmAXULsc0U6iOM8gbtxGiFmNAT/UsFSUPp6nrduX26fnAMUBsK9Wj2AWcrC6IejUY01gSaot/z/8tHeP3A5HlVmID5MitdwTd9dJxJjGiGICNoeg5PcGe3ABDDlgYPAZIbWWNHcS0oZRL0eJt91zETpt+yyHkaWzoqDAaiTs3bvNJLCn7qg0c3RoZoIgG8D5RLexIPfayAuabiNIsuS9Xg8cAqf0fYjmz5MX74UUYwMcAaP/VNnZjILXEvTY2kmpOug1iAHUHFfa1/xVopQELA8UAciSprTQc1dmSxskupBVhgFS36y2/0cX7/4onZmH41NPm+AJc9kXGbplAMGtihoIxQBzccpawx/3/S0jqPySCwH3m3v5neNGKKF6viZhmRTTinAGa3TuP0dn/9ZZHht+9qCHoMv8M2zNRZcY6dlZ872MNFgOk0bgR3L+ZbTIpDBSB0VXvNGNuI1jzCmn0zW46/Js2Q/A3JQxB+QFUg505791hqUsarQhyewJgbHddXnLG4jWC7ps2FYHRGSBj29WvxjGANOTcBfQ0R3cRPQ0gd9sEqCSp+wnTHxnj/Apai1msSbPkVf8VQW7VMHh+tLsg3Bkg2KQIPVcjUKT994Hc6ACy/nec7eyFLfJP3EafXVPSPBTFlXskqJPZOKPUKdkYi4CxFK+LVqpnsLHz6FPIfG9z4BRV/5o25qykTRS1+/+QGXd2s/ifxfXxCEFwVbRFitoBaThaewLvvnjpSxtj4BgAZO+H+t8WAhYZhRP25ILVLv6a0OYu4GRbdIPblCZjvuIUQ8OOqSJm6RAQTVInbX3//G5AWIq4A8EAahNb1P9LTemLhMXUvzaolf1wC4i/yZCYpnx3g9GUZhvcyHIle+etiB2gJix1Bw8QCKrroNgBA8EAiS75wYz+57Ypsh4V7S+niVzXgOhN1pbz7YJURsdnhrqtzfZJoldHS6QYvjQuKHYO4UWaKNoxDEsQsViFqgYsGUVbm/fv8ZBLBCviN5eESuUqaHdM/Y8UmahidoBP1JY2uTzmOcR191pAaynUpI3QHQw4uBRSne2mf3+DwQDN+h8U5b64+pf8T5n75gfNbAteJbe0f8ljk9kBxWc9+fBwsDkGBQGqPlnfGUBtobWJmv6VhwOjqiwi/cKOt/8B5w9T0Q1dj4g5FsOdNx2rWcCSY084trrXAF526g38RX5Q2HpQ7IC+M0DQYgyF7bGQm3P/irb/yWz8IQie0HxFIdrx3/2/EUmbZqjvLi1QDltaMFKntk/ge2cvNGhS3bsHrbIU5apUGRiW0SFR/RfpaiVIkoK+2B6koeX0tsi5uY/whdEOKIOz1AwcUgSUXqQpU5nS8CQrm7O2qf3LKKtFYdL8Py1S2cT5EgPuR8Wlv1G5tDxukg84uT9A3bqizYCPDdDU5W8M2w7C6GBRZDfwU+oiWdlDfG9oiGVUrqyF4CIhjb1fz1KrW822GCvV/hsMjTURG2xM4eqSWkrzlNQpfBxLaF5uBWxjIwVF6ltJmr4xgAjEaHtqnw+P7avuyzLAdw0zVbavyS2sZW+OsaLNlOrmzUDGknuFjSyALV5ny6LMX98YwNasI6HMl9Mqo5fG9rVMXdzKng7/Y5k0l3mVydPTppU99fDdOF2laC/F8xObs/CTRaBPMiOV9fvlgSyWQ/8YIBlXtfBqVOJjTDX6JK4iNdGmCGpfbwOxWpUctGilSEbzpWn0JO62pe0/BV5Jsvv25kuw8DPBmTM28CiY/tULR+39274wgBl/aU1hcwKWdh8pqv7Tl34vhFjm/iWjoobavFg3mGVT5GgYdVK1Xr9YcFeV0mboQZ3UZW3uzqZHSxb6wgBpWhR+cblFXxSnbhUlvpDl7t88boJcbPpXZ0ivUYZbKmoGijKZL6nXHIEjbCOKvk0VW3IGMIPn8w31ebgtmfJvFBRtVych/zBM9FvU6veNimlxR2ck7SxWynPSPvD8S0qUHijaDGhMYZy6Kxxp/+CkH8bgkjOABkGknpF+DYwcFlFYRvrTVqgXswq38/n/hvUu/kZd2lHX95PqAiO/hnmLB9cCWXiNDGFrsvowQLT0DJAQVue7hCvDY0GhpoEXtYKlgkesB5GHbypra6uLq2ZlMW8wpm2209+KpNfMxaJdQs1amgAH2krmNfMWugQPl5QBpOJkUZuqq4U3F0ZdEzGy/rUp0m/pA4zZ4yKzf5v5LXyV8h7B0zjFljha/Vu8GfCynH3enK9hR4+Em4WhqPTtkjJAYwz8CL4/PMKyad/3R1JUNMirJmv64uzUuBH0mgrYqh005G1M7MvGUjPQLnYnz7V2YQrbZU904SstwRI3A0UNr04qNzeODCnf9uRtscMn/i868qe0abHVuSoM9a+RO19ZpAcE614lyfVHnf8zlVxSmRJoVFBlUAeV8Q2I9ybOYmDFKVoPNWMKb+M4x1Ywx61h7GmP/5aMAWxodhS3p7p+NT47P2FGVdG2X2iR71+G1K/RAhcYntIuXy1IayVgy+Pil6mMjTQ52zBHYJiZvpPUpbgZq00l5QLbX11CmOwSw1XaeaU4pB2lXDIGAFXO6Xl4p8mK9hwrLjWqnO8+OhW+K+vfJD12L+0jWHFgGIY7hrjarGkjKTpr8nxB6jbEv4GBpX9XYZpbKA3ARpJTkUAPkvd55Lg78UR+1a8oG4iZ5ct4J3lc0sAVN70OS8IApprl7Tqc+f4Z1r/3njsjxnwY0Lw8kV/51GKjwqga2N9s0Q8zQifV/QYkdR9T2p2SR6SUYt9oi0KMAZhfZKn5y/M0z0BlT4S3GyzFVzEL5OQYOpjxgefAdD9M2/TqZS9DcSJ0CBW41K6YbuvWwjsw/rRti4jTKTnmliTpFuvWw89Qn9+1CIyqzY3Ik4zN7MQW2txSX0Kf4EjndK379ExnxXVWum/ePHf0sjA8LwWSK02juQaYN3oHD1WjaesMuxYIzBpaEsdQzxmAWX4rbEz9KNsr5/CmSdUBWtpHSfv/nkkbP2HS0mKszUimWYJeyxGYQWyjoRw/p2vdp2fp7GnmNezMGNQcRoUsrOeoJkijuWNoX7NdwF01GbfPpacMYHPyzzPlK/l4B9WR00aSOi9i24M5643U/wSsNBROtTf7dsRWboPMyqrwbZpsOhJOp0Ya21SdypQh97BWEIlh3yG4tAmn4bAwkIsn7CkDpDV5WLf7AcprXXGWlhdt/ihUX4gKvlEIQiLdqli4vlXJqZUiCc3lvNHq45wu4Yg97gSOhaCsGY7ycHh+WJw42pyMslC6wu96xgBGmNSV0f61Upi5tawiX/mQhS9aJmNRwZfPsXgOgsWtnHKaTZpROJLir/mevzZvECYvDtzCKXuWcbKasfwPRGIPwshyx83C8Cz2Vq5fjfzdhsyb84feeLL2F0tb+XvZNsqU/XkvAqarzcAt/5k9fW1EBuGBdDO1UaV2KKhUe1me8a8nDCDLv+GA0bdqHXwhq1x5yVLOwlfIf5P6/mRdpt1txUWha/M/KKW0gNeuLDzKJS0mPT7hUudCAC6SqBxB2mUeJ2TCwX+LOtsH6ZDhV9ailfSvREFuIi83/tIYfTs4luJ5gmE4fA0tdzcwqp6qb5mgMYJJartXOMIcWaGxgKZMrvOkrZwBTCpp+yG+VsEeH82zsm2jQNfiSoUzcZTcbFej/ZX+BINJqc9FODUaqG4RWITCfxrllNyPgsude7WGoHIGSNO9AP2jyMKOtPzlVb8Ptvh38LLwJaHULPA+q3/BYU3QKHLv4Stogc2mqcSw5YI+PaORwh0oxL/+1YMdxiplgPzosMo49Uj7tMmbogcgIacMOvw7eDnDvuvCxZZRgU2fygCwSFqTeIxBbUl3jmkB+SnLB/k7xGVHY0y/zHALjstn28yhMgYwiVwbNmughOw/HZEgKShrvAiRadj3CwI9ji30zfoXDK0hY5DIPm7hD78QiSZboCyMwt2UGZe18CnzeArH+B9ayy9zXQkDzLBQHwj/Arn2ov0S8auQfq2oFSqvZ+egr1ll09hCmZpXnXZfa7G9SxgYn3ASgZrSQbaAmoJn8AG996fcZuA8PSxwroQBZKGqT4zHb1/k/X2OCoOmrPRr3C8x0clJBab+d4H69iyJaYGknuvhxNgAiA3KMoEPNrtBeCwG4fOs/hUtfSvNADleKiOMq6WTzBlSxxTSQEv5oFE/7fhxK8eXLbt2o37lyyqfwx+51ZOdHr4OvJdHDFRhCwzDRuPWuObhP60JVE+rAg9haQZoeKkeGz6CebI30j8OyVaWx6blkHb8OtEcP4zANRxMFRVQZTamBfwrobJ8/Mud5W2gBOJKw+0qttEdir2CCjyEpRjAZsZoUETu3iG+Lzxu6q6swydV2GfJTPDlre3CyfYwtrMpwiCeYVCbk0iP4EwIdiVaQDgu2yVMVdVHofVt4HeA81dKGKLRnd53fS7MAHFa1GT+ehZ24pqNJUvdlW33UyV81C8Ln6aJedjK05SsZRAaVnotfLgybHi9hVvfp6wW1tIU7GLNr/e8CmGmEAMkb5+VOBnWYaHuBI9XZfUr20kkZwUulV+wR6d1/TQXr1AN+5AoGan4LL5OTS6hJrKHZBdVETQVTl7RHcl1nTI0JmguWumqjK4ZwLofcZo1FunHae1fQiW1sjdZ610B0CZysv0/ps/RGsOVt6bbFNWbx4LZcs7QAu4NkH+kGg2mWUveNdwfGritAU2KdA27ZoDGxg5HMcFjKPyTt3jWzlWl+mXtqq27DsStNSSmARe7WSZ/EWa0wHeox7kIinBt9kFFNaiRm3pJ76L7/XrTOgU2muiKAdS2ycix/n5Ot8x7uOqhdpXPAgiQhPhXsevhY1aWylwmbX9rvaxH0GybP2oGsn/guaqmTDifMp3C+Ij5B0Qb7463grLgdceEs/6+nD1sa4K6PwvO0/w+cbRUW1VBHi9Nkb6IvvR6y3SwfP7d1VMfh5Cf5LRwGQnXRky52HSXU7vYTgN9XTUPZ0Gb3aQJVGa7BLOfdxyx0d8PrOtbxb4+U5ho5cf4W+HRZoyaDaPwYf0tONtXEQY8SAuAN3eITeEnmWBpec3YwK2CauBfAS02ha35zmIeDrYsu/APdM4ACVjNXHVTpkqjT7mrf6twChJzkRlRaUaxPV6ef9aMuQPr5xDo3yo1lZsoSRtkqznuKhRhgLSTT5WqTFunDSMhD8HN77caMPaNVVllGV0hJkaupvw0hfx+PHiT9u0BCU+VWsDBLbBCsXsGKILGxdJoWZUPm3wUifkF0r9CfdvFkvXwferRVIIf6qRvD6zQPH9Y+t0VO4dKoaGSCpaCIEfmR0z6bwhPiz7uDX0lvqqTJH9jvMk6+vD0AoiwpkAG4fpwNjU+B2tHWqDKbuECpbd/1W8GkNLyT7zn4e0ymqyr2SRAe8h790bET1/4+IwVo+VtVXZFs/AuSK/vD1QxaaQUJvrNANopSxsn/heScaF1mejGlKpR+cRp+tnXMEbPlzFqqrt8vsEYXPmxlzE65n3R6K3eFugC1n4ywARytorO5B2Q/FiDuYvuSxd17CaqNJKMUfV03mcJi+4u0q7U5CFcT49g3MYJVsAMVY0TtCu17fN+MYB7/ARWLfwD7ePv0tByW0iX5oUWZ6oB+lccUTcZTBVrJNMCyUOYsQhUzKb1DqE/mq9fDCA1q63T16EO19PoZvqk6tLQuE0pMka1qGOcJa2rojHaqxFI8jXmWsdHKXPWTriryId624DXq8f9YAAt6x6B8+/EDLJl0DansEojqwi20qYTeTguWxvus7a/R8ao+TfiDuTYPh+C6X4ARnrjG1gEF0vNALKwU5l/l53N3j7HMM2rv31+kXkc2R/h/wr00BcNZz0egUy+ASsrZ7cx7Urim1O4n3URwlX1OhGjqvwWy2eK1k6TPD+LhX2OqcETQHt/gxZirrQWOAvHG2Fooyvt9rWpn/kG5CA63b5Kpu1zFLZYBtBn1Efg8+tw+GhPPPuUup37+1c3w286nIU98m0DZQntEWMCdxB9jmbxDFhRFsGSCcVSaQCtbvEVr1l4rVnCgzHOPw1cUv3jnD8o4tsIZL/sEW2fO46PYNh6BUvCBEvBAFJpaQedt6D6bzBvX8XdKxGvUHAL/GSk/9qGv75QRsUTNQTi1PAAubwuNkf6kGbPnWK9ZgAZfWr3tbzpJCzetfL2sbyzv10+p5VGILX48rewp0l/Yzu74rQsnnLMp3gjIJdhBRxjDYGPu/bUJug1A8ixor7198Np4a2GnTEGROIunsWxVUnKNAL5YZB+j0l/H7WSdQ01gwhfJEbhiQjMl8Bcz7uGvWOA5FiZCL9BlR2uCvYbyS1sozUHwzDmj5l4doI97/8IZLCex/5G9IDAvAn4LjfDufyOIy1Vn3nZKwaQcaURNTUBh6D674zTu/o+/Bmr78o1C8caY8og7ZHTZya6F7+zOX3qhgqeYbbVnbRtZ9RB7Ik90AsGUJul1lXhdWrT+mVcGQTNPzGjwmazSSbCN4HNdhoT0v3VYPzHhR4rslPQnll4FRaTz5jqARNUzQBCch0Ey9lzLJK/ziz+uF6uz+hFqIBKU7O1vi4PHxA8MKezap+Bm128+QekCdg4Wk0oIqWgPkulBnSVDCDia2erYWTsRKTrozzIAtatIB+A4Mzpo30nYWhdbT2SDTDDgAbTBGqe1rMxxnT4e4zCFCrDaVUMkIgvi389AGuP/pC+EJag7vM5jfbpy2KfMFjYhnVQ2v62uFnDLCl5CvXdgomgjbeksZyZ2ybq/EVVDCDJF/G/heQfqeKj6q+MUzuvUtuYtahGPw2D3m52Sb8HodqC2nxhPQMmykibgttjwfHnTMv69wnECKVCFQyQ+voXhdUYLIReTKQoVUuhSWP9k+FGvh7gH4AYxH2G2lRSA1Tpg1sw79/ABKdgyWg1UGkBK8MAMqpEfI3tfw979eXm0hylzRo0yRKkLivH2Rbs2s5uwCz/NrRvPBYTJIMVTfB6mOAMYwL3ERTWBGUYQBM6RfyLIP5Lrf8qg2V0sLpUmKH+JQ4+Kw/izrD2lK3WGphdRhezmOBwmGCD0SA5igpQs/sk2r9SdvMIHzXZzEeTVocDGsQfRKnSTgPq5efhvUZrXNHLiOZzQJ3FBIfBBKcZLbwv03WPpntkaN6s9qqcZMfu9eEVDbU/SMSfOZvnMWipM6zbpynZgwTnHPJ29sCYAG2r2Gi1o2Dwz4atuBFtugydM0ATqVsxaLmOgo9WWWbtD5raj9PLrZ8fwi2AebxgLbu6x/IYkL+kdQUOXcS3spXOWi7FBr2tJxsRaBdwCyJ+uh6kcyR8yN8Yto2fqxkk8CqFpZUGtmFXl7n/P8sUMB0Vcs8pAAAAAElFTkSuQmCC;imageBorder=#000000;" vertex="1" parent="1">
          <mxGeometry x="140" y="210" width="30" height="30" as="geometry" />
        </mxCell>
        <mxCell id="nS4Bwxo-vKO3iZAZe_Ir-8" value="3" style="text;html=1;strokeColor=none;fillColor=none;align=center;verticalAlign=middle;whiteSpace=wrap;rounded=0;" vertex="1" parent="1">
          <mxGeometry x="90" y="215" width="40" height="20" as="geometry" />
        </mxCell>
        <mxCell id="nS4Bwxo-vKO3iZAZe_Ir-9" value="2" style="text;html=1;strokeColor=none;fillColor=none;align=center;verticalAlign=middle;whiteSpace=wrap;rounded=0;" vertex="1" parent="1">
          <mxGeometry x="170" y="215" width="40" height="20" as="geometry" />
        </mxCell>
      </root>
    </mxGraphModel>
  </diagram>
</mxfile>
